<mxfile host="app.diagrams.net" agent="Mozilla/5.0 (Windows NT 10.0; Win64; x64) AppleWebKit/537.36 (KHTML, like Gecko) Chrome/133.0.0.0 Safari/537.36" version="26.1.0" pages="2">
  <diagram name="Page-1" id="FFIjwc0M4ICV1_GguwHn">
    <mxGraphModel dx="1398" dy="1545" grid="1" gridSize="10" guides="1" tooltips="1" connect="1" arrows="1" fold="1" page="1" pageScale="1" pageWidth="1169" pageHeight="827" math="0" shadow="0">
      <root>
        <mxCell id="0" />
        <mxCell id="1" parent="0" />
        <mxCell id="ZPXW9hE0XT7FIvmTxyDF-1" value="0 - Position assise" style="swimlane;fontStyle=0;childLayout=stackLayout;horizontal=1;startSize=30;horizontalStack=0;resizeParent=1;resizeParentMax=0;resizeLast=0;collapsible=1;marginBottom=0;whiteSpace=wrap;html=1;" parent="1" vertex="1">
          <mxGeometry x="200" y="240" width="140" height="120" as="geometry" />
        </mxCell>
        <mxCell id="ZPXW9hE0XT7FIvmTxyDF-2" value="1 - autour de toi" style="text;strokeColor=none;fillColor=none;align=left;verticalAlign=middle;spacingLeft=4;spacingRight=4;overflow=hidden;points=[[0,0.5],[1,0.5]];portConstraint=eastwest;rotatable=0;whiteSpace=wrap;html=1;" parent="ZPXW9hE0XT7FIvmTxyDF-1" vertex="1">
          <mxGeometry y="30" width="140" height="30" as="geometry" />
        </mxCell>
        <mxCell id="ZPXW9hE0XT7FIvmTxyDF-3" value="2 - Tes poches" style="text;strokeColor=none;fillColor=none;align=left;verticalAlign=middle;spacingLeft=4;spacingRight=4;overflow=hidden;points=[[0,0.5],[1,0.5]];portConstraint=eastwest;rotatable=0;whiteSpace=wrap;html=1;" parent="ZPXW9hE0XT7FIvmTxyDF-1" vertex="1">
          <mxGeometry y="60" width="140" height="30" as="geometry" />
        </mxCell>
        <mxCell id="ZPXW9hE0XT7FIvmTxyDF-4" value="3 - Tu te lèves" style="text;strokeColor=none;fillColor=none;align=left;verticalAlign=middle;spacingLeft=4;spacingRight=4;overflow=hidden;points=[[0,0.5],[1,0.5]];portConstraint=eastwest;rotatable=0;whiteSpace=wrap;html=1;" parent="ZPXW9hE0XT7FIvmTxyDF-1" vertex="1">
          <mxGeometry y="90" width="140" height="30" as="geometry" />
        </mxCell>
        <mxCell id="ZPXW9hE0XT7FIvmTxyDF-5" value="1 - Actions" style="swimlane;fontStyle=0;childLayout=stackLayout;horizontal=1;startSize=30;horizontalStack=0;resizeParent=1;resizeParentMax=0;resizeLast=0;collapsible=1;marginBottom=0;whiteSpace=wrap;html=1;" parent="1" vertex="1">
          <mxGeometry x="480" y="80" width="240" height="150" as="geometry" />
        </mxCell>
        <mxCell id="ZPXW9hE0XT7FIvmTxyDF-6" value="A - Tu tatonnes [Réussite]" style="text;strokeColor=none;fillColor=none;align=left;verticalAlign=middle;spacingLeft=4;spacingRight=4;overflow=hidden;points=[[0,0.5],[1,0.5]];portConstraint=eastwest;rotatable=0;whiteSpace=wrap;html=1;" parent="ZPXW9hE0XT7FIvmTxyDF-5" vertex="1">
          <mxGeometry y="30" width="240" height="30" as="geometry" />
        </mxCell>
        <mxCell id="ZPXW9hE0XT7FIvmTxyDF-14" value="B - Tu tatonnes [Echec]" style="text;strokeColor=none;fillColor=none;align=left;verticalAlign=middle;spacingLeft=4;spacingRight=4;overflow=hidden;points=[[0,0.5],[1,0.5]];portConstraint=eastwest;rotatable=0;whiteSpace=wrap;html=1;" parent="ZPXW9hE0XT7FIvmTxyDF-5" vertex="1">
          <mxGeometry y="60" width="240" height="30" as="geometry" />
        </mxCell>
        <mxCell id="ZPXW9hE0XT7FIvmTxyDF-13" value="C - Tu écoutes [Réussite]" style="text;strokeColor=none;fillColor=none;align=left;verticalAlign=middle;spacingLeft=4;spacingRight=4;overflow=hidden;points=[[0,0.5],[1,0.5]];portConstraint=eastwest;rotatable=0;whiteSpace=wrap;html=1;" parent="ZPXW9hE0XT7FIvmTxyDF-5" vertex="1">
          <mxGeometry y="90" width="240" height="30" as="geometry" />
        </mxCell>
        <mxCell id="ZPXW9hE0XT7FIvmTxyDF-7" value="D - Tu écoutes [Echec]" style="text;strokeColor=none;fillColor=none;align=left;verticalAlign=middle;spacingLeft=4;spacingRight=4;overflow=hidden;points=[[0,0.5],[1,0.5]];portConstraint=eastwest;rotatable=0;whiteSpace=wrap;html=1;" parent="ZPXW9hE0XT7FIvmTxyDF-5" vertex="1">
          <mxGeometry y="120" width="240" height="30" as="geometry" />
        </mxCell>
        <mxCell id="ZPXW9hE0XT7FIvmTxyDF-9" style="edgeStyle=orthogonalEdgeStyle;rounded=0;orthogonalLoop=1;jettySize=auto;html=1;entryX=-0.004;entryY=0.113;entryDx=0;entryDy=0;entryPerimeter=0;" parent="1" source="ZPXW9hE0XT7FIvmTxyDF-2" target="ZPXW9hE0XT7FIvmTxyDF-5" edge="1">
          <mxGeometry relative="1" as="geometry" />
        </mxCell>
        <mxCell id="ZPXW9hE0XT7FIvmTxyDF-10" value="1 - Tu veux en savoir plus sur ce qui t&#39;entoures" style="swimlane;fontStyle=0;childLayout=stackLayout;horizontal=1;startSize=30;horizontalStack=0;resizeParent=1;resizeParentMax=0;resizeLast=0;collapsible=1;marginBottom=0;whiteSpace=wrap;html=1;" parent="1" vertex="1">
          <mxGeometry x="840" y="10" width="240" height="120" as="geometry" />
        </mxCell>
        <mxCell id="ZPXW9hE0XT7FIvmTxyDF-11" value="6 - tes poches" style="text;strokeColor=none;fillColor=none;align=left;verticalAlign=middle;spacingLeft=4;spacingRight=4;overflow=hidden;points=[[0,0.5],[1,0.5]];portConstraint=eastwest;rotatable=0;whiteSpace=wrap;html=1;" parent="ZPXW9hE0XT7FIvmTxyDF-10" vertex="1">
          <mxGeometry y="30" width="240" height="30" as="geometry" />
        </mxCell>
        <mxCell id="ZPXW9hE0XT7FIvmTxyDF-12" value="7 - tu te lèves" style="text;strokeColor=none;fillColor=none;align=left;verticalAlign=middle;spacingLeft=4;spacingRight=4;overflow=hidden;points=[[0,0.5],[1,0.5]];portConstraint=eastwest;rotatable=0;whiteSpace=wrap;html=1;" parent="ZPXW9hE0XT7FIvmTxyDF-10" vertex="1">
          <mxGeometry y="60" width="240" height="30" as="geometry" />
        </mxCell>
        <mxCell id="ZPXW9hE0XT7FIvmTxyDF-15" value="4 - appuyer bouton manette" style="text;strokeColor=none;fillColor=none;align=left;verticalAlign=middle;spacingLeft=4;spacingRight=4;overflow=hidden;points=[[0,0.5],[1,0.5]];portConstraint=eastwest;rotatable=0;whiteSpace=wrap;html=1;" parent="ZPXW9hE0XT7FIvmTxyDF-10" vertex="1">
          <mxGeometry y="90" width="240" height="30" as="geometry" />
        </mxCell>
        <mxCell id="ZPXW9hE0XT7FIvmTxyDF-16" style="edgeStyle=orthogonalEdgeStyle;rounded=0;orthogonalLoop=1;jettySize=auto;html=1;entryX=0.004;entryY=0.2;entryDx=0;entryDy=0;entryPerimeter=0;" parent="1" source="ZPXW9hE0XT7FIvmTxyDF-6" target="ZPXW9hE0XT7FIvmTxyDF-10" edge="1">
          <mxGeometry relative="1" as="geometry" />
        </mxCell>
        <mxCell id="ZPXW9hE0XT7FIvmTxyDF-17" style="edgeStyle=orthogonalEdgeStyle;rounded=0;orthogonalLoop=1;jettySize=auto;html=1;entryX=0.004;entryY=0.083;entryDx=0;entryDy=0;entryPerimeter=0;" parent="1" source="ZPXW9hE0XT7FIvmTxyDF-14" target="ZPXW9hE0XT7FIvmTxyDF-10" edge="1">
          <mxGeometry relative="1" as="geometry" />
        </mxCell>
        <mxCell id="ZPXW9hE0XT7FIvmTxyDF-18" value="4 - En appuyant sur les boutons de la manette" style="swimlane;fontStyle=0;childLayout=stackLayout;horizontal=1;startSize=30;horizontalStack=0;resizeParent=1;resizeParentMax=0;resizeLast=0;collapsible=1;marginBottom=0;whiteSpace=wrap;html=1;" parent="1" vertex="1">
          <mxGeometry x="1169" y="10" width="240" height="150" as="geometry" />
        </mxCell>
        <mxCell id="ZPXW9hE0XT7FIvmTxyDF-19" value="8 - fouiller tes affaires" style="text;strokeColor=none;fillColor=none;align=left;verticalAlign=middle;spacingLeft=4;spacingRight=4;overflow=hidden;points=[[0,0.5],[1,0.5]];portConstraint=eastwest;rotatable=0;whiteSpace=wrap;html=1;" parent="ZPXW9hE0XT7FIvmTxyDF-18" vertex="1">
          <mxGeometry y="30" width="240" height="30" as="geometry" />
        </mxCell>
        <mxCell id="ZPXW9hE0XT7FIvmTxyDF-20" value="9 - atteindre le bureau" style="text;strokeColor=none;fillColor=none;align=left;verticalAlign=middle;spacingLeft=4;spacingRight=4;overflow=hidden;points=[[0,0.5],[1,0.5]];portConstraint=eastwest;rotatable=0;whiteSpace=wrap;html=1;" parent="ZPXW9hE0XT7FIvmTxyDF-18" vertex="1">
          <mxGeometry y="60" width="240" height="30" as="geometry" />
        </mxCell>
        <mxCell id="ZPXW9hE0XT7FIvmTxyDF-21" value="10 - atteindre la porte" style="text;strokeColor=none;fillColor=none;align=left;verticalAlign=middle;spacingLeft=4;spacingRight=4;overflow=hidden;points=[[0,0.5],[1,0.5]];portConstraint=eastwest;rotatable=0;whiteSpace=wrap;html=1;" parent="ZPXW9hE0XT7FIvmTxyDF-18" vertex="1">
          <mxGeometry y="90" width="240" height="30" as="geometry" />
        </mxCell>
        <mxCell id="ZPXW9hE0XT7FIvmTxyDF-23" value="11 - atteindre la télé" style="text;strokeColor=none;fillColor=none;align=left;verticalAlign=middle;spacingLeft=4;spacingRight=4;overflow=hidden;points=[[0,0.5],[1,0.5]];portConstraint=eastwest;rotatable=0;whiteSpace=wrap;html=1;" parent="ZPXW9hE0XT7FIvmTxyDF-18" vertex="1">
          <mxGeometry y="120" width="240" height="30" as="geometry" />
        </mxCell>
        <mxCell id="ZPXW9hE0XT7FIvmTxyDF-22" style="edgeStyle=orthogonalEdgeStyle;rounded=0;orthogonalLoop=1;jettySize=auto;html=1;entryX=0;entryY=0.133;entryDx=0;entryDy=0;entryPerimeter=0;" parent="1" source="ZPXW9hE0XT7FIvmTxyDF-15" target="ZPXW9hE0XT7FIvmTxyDF-18" edge="1">
          <mxGeometry relative="1" as="geometry">
            <Array as="points">
              <mxPoint x="1150" y="115" />
              <mxPoint x="1150" y="30" />
            </Array>
          </mxGeometry>
        </mxCell>
        <mxCell id="ZPXW9hE0XT7FIvmTxyDF-24" value="9 - Actions" style="swimlane;fontStyle=0;childLayout=stackLayout;horizontal=1;startSize=30;horizontalStack=0;resizeParent=1;resizeParentMax=0;resizeLast=0;collapsible=1;marginBottom=0;whiteSpace=wrap;html=1;" parent="1" vertex="1">
          <mxGeometry x="1480" y="10" width="240" height="210" as="geometry" />
        </mxCell>
        <mxCell id="ZPXW9hE0XT7FIvmTxyDF-25" value="A - fouiller tiroir [Réussite]" style="text;strokeColor=none;fillColor=none;align=left;verticalAlign=middle;spacingLeft=4;spacingRight=4;overflow=hidden;points=[[0,0.5],[1,0.5]];portConstraint=eastwest;rotatable=0;whiteSpace=wrap;html=1;" parent="ZPXW9hE0XT7FIvmTxyDF-24" vertex="1">
          <mxGeometry y="30" width="240" height="30" as="geometry" />
        </mxCell>
        <mxCell id="ZPXW9hE0XT7FIvmTxyDF-37" value="A - fouiller tiroir&amp;nbsp;&amp;nbsp;[Echec]" style="text;strokeColor=none;fillColor=none;align=left;verticalAlign=middle;spacingLeft=4;spacingRight=4;overflow=hidden;points=[[0,0.5],[1,0.5]];portConstraint=eastwest;rotatable=0;whiteSpace=wrap;html=1;" parent="ZPXW9hE0XT7FIvmTxyDF-24" vertex="1">
          <mxGeometry y="60" width="240" height="30" as="geometry" />
        </mxCell>
        <mxCell id="ZPXW9hE0XT7FIvmTxyDF-26" value="B - ouvrir le volet par la force [Réussite]" style="text;strokeColor=none;fillColor=none;align=left;verticalAlign=middle;spacingLeft=4;spacingRight=4;overflow=hidden;points=[[0,0.5],[1,0.5]];portConstraint=eastwest;rotatable=0;whiteSpace=wrap;html=1;" parent="ZPXW9hE0XT7FIvmTxyDF-24" vertex="1">
          <mxGeometry y="90" width="240" height="30" as="geometry" />
        </mxCell>
        <mxCell id="ZPXW9hE0XT7FIvmTxyDF-38" value="B - ouvrir le volet par la force [Echec]" style="text;strokeColor=none;fillColor=none;align=left;verticalAlign=middle;spacingLeft=4;spacingRight=4;overflow=hidden;points=[[0,0.5],[1,0.5]];portConstraint=eastwest;rotatable=0;whiteSpace=wrap;html=1;" parent="ZPXW9hE0XT7FIvmTxyDF-24" vertex="1">
          <mxGeometry y="120" width="240" height="30" as="geometry" />
        </mxCell>
        <mxCell id="ZPXW9hE0XT7FIvmTxyDF-27" value="C - ouvrir volet avec manivelle [Réussite]" style="text;strokeColor=none;fillColor=none;align=left;verticalAlign=middle;spacingLeft=4;spacingRight=4;overflow=hidden;points=[[0,0.5],[1,0.5]];portConstraint=eastwest;rotatable=0;whiteSpace=wrap;html=1;" parent="ZPXW9hE0XT7FIvmTxyDF-24" vertex="1">
          <mxGeometry y="150" width="240" height="30" as="geometry" />
        </mxCell>
        <mxCell id="ZPXW9hE0XT7FIvmTxyDF-39" value="C - ouvrir volet avec manivelle [Echec]" style="text;strokeColor=none;fillColor=none;align=left;verticalAlign=middle;spacingLeft=4;spacingRight=4;overflow=hidden;points=[[0,0.5],[1,0.5]];portConstraint=eastwest;rotatable=0;whiteSpace=wrap;html=1;" parent="ZPXW9hE0XT7FIvmTxyDF-24" vertex="1">
          <mxGeometry y="180" width="240" height="30" as="geometry" />
        </mxCell>
        <mxCell id="ZPXW9hE0XT7FIvmTxyDF-29" style="edgeStyle=orthogonalEdgeStyle;rounded=0;orthogonalLoop=1;jettySize=auto;html=1;entryX=0.008;entryY=0.113;entryDx=0;entryDy=0;entryPerimeter=0;" parent="1" source="ZPXW9hE0XT7FIvmTxyDF-20" target="ZPXW9hE0XT7FIvmTxyDF-24" edge="1">
          <mxGeometry relative="1" as="geometry" />
        </mxCell>
        <mxCell id="ZPXW9hE0XT7FIvmTxyDF-31" value="9 - tu ouvres le tiroir et tu scrutes" style="swimlane;fontStyle=0;childLayout=stackLayout;horizontal=1;startSize=30;horizontalStack=0;resizeParent=1;resizeParentMax=0;resizeLast=0;collapsible=1;marginBottom=0;whiteSpace=wrap;html=1;" parent="1" vertex="1">
          <mxGeometry x="1820" y="10" width="240" height="150" as="geometry" />
        </mxCell>
        <mxCell id="ZPXW9hE0XT7FIvmTxyDF-32" value="12 - essayer d&#39;ouvrir le volet" style="text;strokeColor=none;fillColor=none;align=left;verticalAlign=middle;spacingLeft=4;spacingRight=4;overflow=hidden;points=[[0,0.5],[1,0.5]];portConstraint=eastwest;rotatable=0;whiteSpace=wrap;html=1;" parent="ZPXW9hE0XT7FIvmTxyDF-31" vertex="1">
          <mxGeometry y="30" width="240" height="30" as="geometry" />
        </mxCell>
        <mxCell id="ZPXW9hE0XT7FIvmTxyDF-33" value="13 - atteindre la télé" style="text;strokeColor=none;fillColor=none;align=left;verticalAlign=middle;spacingLeft=4;spacingRight=4;overflow=hidden;points=[[0,0.5],[1,0.5]];portConstraint=eastwest;rotatable=0;whiteSpace=wrap;html=1;" parent="ZPXW9hE0XT7FIvmTxyDF-31" vertex="1">
          <mxGeometry y="60" width="240" height="30" as="geometry" />
        </mxCell>
        <mxCell id="ZPXW9hE0XT7FIvmTxyDF-34" value="14 - atteindre la porte" style="text;strokeColor=none;fillColor=none;align=left;verticalAlign=middle;spacingLeft=4;spacingRight=4;overflow=hidden;points=[[0,0.5],[1,0.5]];portConstraint=eastwest;rotatable=0;whiteSpace=wrap;html=1;" parent="ZPXW9hE0XT7FIvmTxyDF-31" vertex="1">
          <mxGeometry y="90" width="240" height="30" as="geometry" />
        </mxCell>
        <mxCell id="ZPXW9hE0XT7FIvmTxyDF-35" value="15 - vers la porte pour utiliser la clef" style="text;strokeColor=none;fillColor=none;align=left;verticalAlign=middle;spacingLeft=4;spacingRight=4;overflow=hidden;points=[[0,0.5],[1,0.5]];portConstraint=eastwest;rotatable=0;whiteSpace=wrap;html=1;" parent="ZPXW9hE0XT7FIvmTxyDF-31" vertex="1">
          <mxGeometry y="120" width="240" height="30" as="geometry" />
        </mxCell>
        <mxCell id="ZPXW9hE0XT7FIvmTxyDF-36" style="edgeStyle=orthogonalEdgeStyle;rounded=0;orthogonalLoop=1;jettySize=auto;html=1;entryX=0.004;entryY=0.14;entryDx=0;entryDy=0;entryPerimeter=0;" parent="1" source="ZPXW9hE0XT7FIvmTxyDF-25" target="ZPXW9hE0XT7FIvmTxyDF-31" edge="1">
          <mxGeometry relative="1" as="geometry" />
        </mxCell>
        <mxCell id="ZPXW9hE0XT7FIvmTxyDF-40" style="edgeStyle=orthogonalEdgeStyle;rounded=0;orthogonalLoop=1;jettySize=auto;html=1;entryX=-0.017;entryY=0.073;entryDx=0;entryDy=0;entryPerimeter=0;" parent="1" source="ZPXW9hE0XT7FIvmTxyDF-37" target="ZPXW9hE0XT7FIvmTxyDF-31" edge="1">
          <mxGeometry relative="1" as="geometry" />
        </mxCell>
        <mxCell id="ZPXW9hE0XT7FIvmTxyDF-41" value="15 - tu arrives devant la porte avec la clef" style="swimlane;fontStyle=0;childLayout=stackLayout;horizontal=1;startSize=30;horizontalStack=0;resizeParent=1;resizeParentMax=0;resizeLast=0;collapsible=1;marginBottom=0;whiteSpace=wrap;html=1;" parent="1" vertex="1">
          <mxGeometry x="2150" y="10" width="290" height="180" as="geometry" />
        </mxCell>
        <mxCell id="ZPXW9hE0XT7FIvmTxyDF-42" value="16 - essayer d&#39;ouvrir le volet" style="text;strokeColor=none;fillColor=none;align=left;verticalAlign=middle;spacingLeft=4;spacingRight=4;overflow=hidden;points=[[0,0.5],[1,0.5]];portConstraint=eastwest;rotatable=0;whiteSpace=wrap;html=1;" parent="ZPXW9hE0XT7FIvmTxyDF-41" vertex="1">
          <mxGeometry y="30" width="290" height="30" as="geometry" />
        </mxCell>
        <mxCell id="ZPXW9hE0XT7FIvmTxyDF-43" value="17 - atteindre la télé" style="text;strokeColor=none;fillColor=none;align=left;verticalAlign=middle;spacingLeft=4;spacingRight=4;overflow=hidden;points=[[0,0.5],[1,0.5]];portConstraint=eastwest;rotatable=0;whiteSpace=wrap;html=1;" parent="ZPXW9hE0XT7FIvmTxyDF-41" vertex="1">
          <mxGeometry y="60" width="290" height="30" as="geometry" />
        </mxCell>
        <mxCell id="ZPXW9hE0XT7FIvmTxyDF-44" value="18 - atteindre la porte" style="text;strokeColor=none;fillColor=none;align=left;verticalAlign=middle;spacingLeft=4;spacingRight=4;overflow=hidden;points=[[0,0.5],[1,0.5]];portConstraint=eastwest;rotatable=0;whiteSpace=wrap;html=1;" parent="ZPXW9hE0XT7FIvmTxyDF-41" vertex="1">
          <mxGeometry y="90" width="290" height="30" as="geometry" />
        </mxCell>
        <mxCell id="ZPXW9hE0XT7FIvmTxyDF-45" value="19 - utiliser la clef" style="text;strokeColor=none;fillColor=none;align=left;verticalAlign=middle;spacingLeft=4;spacingRight=4;overflow=hidden;points=[[0,0.5],[1,0.5]];portConstraint=eastwest;rotatable=0;whiteSpace=wrap;html=1;" parent="ZPXW9hE0XT7FIvmTxyDF-41" vertex="1">
          <mxGeometry y="120" width="290" height="30" as="geometry" />
        </mxCell>
        <mxCell id="ZPXW9hE0XT7FIvmTxyDF-47" value="20 - Revenir au canapé" style="text;strokeColor=none;fillColor=none;align=left;verticalAlign=middle;spacingLeft=4;spacingRight=4;overflow=hidden;points=[[0,0.5],[1,0.5]];portConstraint=eastwest;rotatable=0;whiteSpace=wrap;html=1;" parent="ZPXW9hE0XT7FIvmTxyDF-41" vertex="1">
          <mxGeometry y="150" width="290" height="30" as="geometry" />
        </mxCell>
        <mxCell id="ZPXW9hE0XT7FIvmTxyDF-46" style="edgeStyle=orthogonalEdgeStyle;rounded=0;orthogonalLoop=1;jettySize=auto;html=1;entryX=0;entryY=0.06;entryDx=0;entryDy=0;entryPerimeter=0;" parent="1" source="ZPXW9hE0XT7FIvmTxyDF-35" target="ZPXW9hE0XT7FIvmTxyDF-41" edge="1">
          <mxGeometry relative="1" as="geometry" />
        </mxCell>
        <mxCell id="ZPXW9hE0XT7FIvmTxyDF-48" value="19 - Actions" style="swimlane;fontStyle=0;childLayout=stackLayout;horizontal=1;startSize=30;horizontalStack=0;resizeParent=1;resizeParentMax=0;resizeLast=0;collapsible=1;marginBottom=0;whiteSpace=wrap;html=1;" parent="1" vertex="1">
          <mxGeometry x="2520" y="10" width="290" height="210" as="geometry" />
        </mxCell>
        <mxCell id="ZPXW9hE0XT7FIvmTxyDF-49" value="A - je m&#39;enferme [Réussite]" style="text;strokeColor=none;fillColor=none;align=left;verticalAlign=middle;spacingLeft=4;spacingRight=4;overflow=hidden;points=[[0,0.5],[1,0.5]];portConstraint=eastwest;rotatable=0;whiteSpace=wrap;html=1;" parent="ZPXW9hE0XT7FIvmTxyDF-48" vertex="1">
          <mxGeometry y="30" width="290" height="30" as="geometry" />
        </mxCell>
        <mxCell id="ZPXW9hE0XT7FIvmTxyDF-50" value="A - je m&#39;enferme [Echec]" style="text;strokeColor=none;fillColor=none;align=left;verticalAlign=middle;spacingLeft=4;spacingRight=4;overflow=hidden;points=[[0,0.5],[1,0.5]];portConstraint=eastwest;rotatable=0;whiteSpace=wrap;html=1;" parent="ZPXW9hE0XT7FIvmTxyDF-48" vertex="1">
          <mxGeometry y="60" width="290" height="30" as="geometry" />
        </mxCell>
        <mxCell id="ZPXW9hE0XT7FIvmTxyDF-51" value="B - J&#39;essaye de courir [Réussite]" style="text;strokeColor=none;fillColor=none;align=left;verticalAlign=middle;spacingLeft=4;spacingRight=4;overflow=hidden;points=[[0,0.5],[1,0.5]];portConstraint=eastwest;rotatable=0;whiteSpace=wrap;html=1;" parent="ZPXW9hE0XT7FIvmTxyDF-48" vertex="1">
          <mxGeometry y="90" width="290" height="30" as="geometry" />
        </mxCell>
        <mxCell id="ZPXW9hE0XT7FIvmTxyDF-52" value="B - J&#39;essaye de courir [Echec]" style="text;strokeColor=none;fillColor=none;align=left;verticalAlign=middle;spacingLeft=4;spacingRight=4;overflow=hidden;points=[[0,0.5],[1,0.5]];portConstraint=eastwest;rotatable=0;whiteSpace=wrap;html=1;" parent="ZPXW9hE0XT7FIvmTxyDF-48" vertex="1">
          <mxGeometry y="120" width="290" height="30" as="geometry" />
        </mxCell>
        <mxCell id="ZPXW9hE0XT7FIvmTxyDF-53" value="C - J&#39;essaye de lui parler [Réussite]" style="text;strokeColor=none;fillColor=none;align=left;verticalAlign=middle;spacingLeft=4;spacingRight=4;overflow=hidden;points=[[0,0.5],[1,0.5]];portConstraint=eastwest;rotatable=0;whiteSpace=wrap;html=1;" parent="ZPXW9hE0XT7FIvmTxyDF-48" vertex="1">
          <mxGeometry y="150" width="290" height="30" as="geometry" />
        </mxCell>
        <mxCell id="ZPXW9hE0XT7FIvmTxyDF-55" value="C - J&#39;essaye de lui parler [Echec]" style="text;strokeColor=none;fillColor=none;align=left;verticalAlign=middle;spacingLeft=4;spacingRight=4;overflow=hidden;points=[[0,0.5],[1,0.5]];portConstraint=eastwest;rotatable=0;whiteSpace=wrap;html=1;" parent="ZPXW9hE0XT7FIvmTxyDF-48" vertex="1">
          <mxGeometry y="180" width="290" height="30" as="geometry" />
        </mxCell>
        <mxCell id="ZPXW9hE0XT7FIvmTxyDF-54" style="edgeStyle=orthogonalEdgeStyle;rounded=0;orthogonalLoop=1;jettySize=auto;html=1;entryX=0;entryY=0.094;entryDx=0;entryDy=0;entryPerimeter=0;" parent="1" source="ZPXW9hE0XT7FIvmTxyDF-45" target="ZPXW9hE0XT7FIvmTxyDF-48" edge="1">
          <mxGeometry relative="1" as="geometry" />
        </mxCell>
        <mxCell id="ZPXW9hE0XT7FIvmTxyDF-56" value="19 - tu cours pour éviter" style="swimlane;fontStyle=0;childLayout=stackLayout;horizontal=1;startSize=30;horizontalStack=0;resizeParent=1;resizeParentMax=0;resizeLast=0;collapsible=1;marginBottom=0;whiteSpace=wrap;html=1;" parent="1" vertex="1">
          <mxGeometry x="2900" y="10" width="290" height="120" as="geometry" />
        </mxCell>
        <mxCell id="ZPXW9hE0XT7FIvmTxyDF-57" value="20 - forcer le passage" style="text;strokeColor=none;fillColor=none;align=left;verticalAlign=middle;spacingLeft=4;spacingRight=4;overflow=hidden;points=[[0,0.5],[1,0.5]];portConstraint=eastwest;rotatable=0;whiteSpace=wrap;html=1;" parent="ZPXW9hE0XT7FIvmTxyDF-56" vertex="1">
          <mxGeometry y="30" width="290" height="30" as="geometry" />
        </mxCell>
        <mxCell id="ZPXW9hE0XT7FIvmTxyDF-58" value="21 - éviter et rentrer dans la voiture" style="text;strokeColor=none;fillColor=none;align=left;verticalAlign=middle;spacingLeft=4;spacingRight=4;overflow=hidden;points=[[0,0.5],[1,0.5]];portConstraint=eastwest;rotatable=0;whiteSpace=wrap;html=1;" parent="ZPXW9hE0XT7FIvmTxyDF-56" vertex="1">
          <mxGeometry y="60" width="290" height="30" as="geometry" />
        </mxCell>
        <mxCell id="ZPXW9hE0XT7FIvmTxyDF-59" value="22 - essayer de lui parler" style="text;strokeColor=none;fillColor=none;align=left;verticalAlign=middle;spacingLeft=4;spacingRight=4;overflow=hidden;points=[[0,0.5],[1,0.5]];portConstraint=eastwest;rotatable=0;whiteSpace=wrap;html=1;" parent="ZPXW9hE0XT7FIvmTxyDF-56" vertex="1">
          <mxGeometry y="90" width="290" height="30" as="geometry" />
        </mxCell>
        <mxCell id="ZPXW9hE0XT7FIvmTxyDF-63" style="edgeStyle=orthogonalEdgeStyle;rounded=0;orthogonalLoop=1;jettySize=auto;html=1;entryX=0;entryY=0.052;entryDx=0;entryDy=0;entryPerimeter=0;" parent="1" source="ZPXW9hE0XT7FIvmTxyDF-52" target="ZPXW9hE0XT7FIvmTxyDF-56" edge="1">
          <mxGeometry relative="1" as="geometry" />
        </mxCell>
        <mxCell id="ZPXW9hE0XT7FIvmTxyDF-64" style="edgeStyle=orthogonalEdgeStyle;rounded=0;orthogonalLoop=1;jettySize=auto;html=1;entryX=-0.014;entryY=0.105;entryDx=0;entryDy=0;entryPerimeter=0;" parent="1" source="ZPXW9hE0XT7FIvmTxyDF-51" target="ZPXW9hE0XT7FIvmTxyDF-56" edge="1">
          <mxGeometry relative="1" as="geometry" />
        </mxCell>
        <mxCell id="ZPXW9hE0XT7FIvmTxyDF-65" value="21 - Actions" style="swimlane;fontStyle=0;childLayout=stackLayout;horizontal=1;startSize=30;horizontalStack=0;resizeParent=1;resizeParentMax=0;resizeLast=0;collapsible=1;marginBottom=0;whiteSpace=wrap;html=1;" parent="1" vertex="1">
          <mxGeometry x="3270" y="10" width="290" height="210" as="geometry" />
        </mxCell>
        <mxCell id="ZPXW9hE0XT7FIvmTxyDF-66" value="A - se jeter par la fenêtre [Réussite]" style="text;strokeColor=none;fillColor=none;align=left;verticalAlign=middle;spacingLeft=4;spacingRight=4;overflow=hidden;points=[[0,0.5],[1,0.5]];portConstraint=eastwest;rotatable=0;whiteSpace=wrap;html=1;" parent="ZPXW9hE0XT7FIvmTxyDF-65" vertex="1">
          <mxGeometry y="30" width="290" height="30" as="geometry" />
        </mxCell>
        <mxCell id="ZPXW9hE0XT7FIvmTxyDF-67" value="A - se jeter par la fenêtre&amp;nbsp;[Echec]" style="text;strokeColor=none;fillColor=none;align=left;verticalAlign=middle;spacingLeft=4;spacingRight=4;overflow=hidden;points=[[0,0.5],[1,0.5]];portConstraint=eastwest;rotatable=0;whiteSpace=wrap;html=1;" parent="ZPXW9hE0XT7FIvmTxyDF-65" vertex="1">
          <mxGeometry y="60" width="290" height="30" as="geometry" />
        </mxCell>
        <mxCell id="ZPXW9hE0XT7FIvmTxyDF-68" value="B - casser la vitre [Réussite]" style="text;strokeColor=none;fillColor=none;align=left;verticalAlign=middle;spacingLeft=4;spacingRight=4;overflow=hidden;points=[[0,0.5],[1,0.5]];portConstraint=eastwest;rotatable=0;whiteSpace=wrap;html=1;" parent="ZPXW9hE0XT7FIvmTxyDF-65" vertex="1">
          <mxGeometry y="90" width="290" height="30" as="geometry" />
        </mxCell>
        <mxCell id="ZPXW9hE0XT7FIvmTxyDF-69" value="B - casser la vitre&amp;nbsp;[Echec]" style="text;strokeColor=none;fillColor=none;align=left;verticalAlign=middle;spacingLeft=4;spacingRight=4;overflow=hidden;points=[[0,0.5],[1,0.5]];portConstraint=eastwest;rotatable=0;whiteSpace=wrap;html=1;" parent="ZPXW9hE0XT7FIvmTxyDF-65" vertex="1">
          <mxGeometry y="120" width="290" height="30" as="geometry" />
        </mxCell>
        <mxCell id="ZPXW9hE0XT7FIvmTxyDF-70" value="C - espérer [Réussite]" style="text;strokeColor=none;fillColor=none;align=left;verticalAlign=middle;spacingLeft=4;spacingRight=4;overflow=hidden;points=[[0,0.5],[1,0.5]];portConstraint=eastwest;rotatable=0;whiteSpace=wrap;html=1;" parent="ZPXW9hE0XT7FIvmTxyDF-65" vertex="1">
          <mxGeometry y="150" width="290" height="30" as="geometry" />
        </mxCell>
        <mxCell id="ZPXW9hE0XT7FIvmTxyDF-71" value="C - espérer&amp;nbsp;&amp;nbsp;[Echec]" style="text;strokeColor=none;fillColor=none;align=left;verticalAlign=middle;spacingLeft=4;spacingRight=4;overflow=hidden;points=[[0,0.5],[1,0.5]];portConstraint=eastwest;rotatable=0;whiteSpace=wrap;html=1;" parent="ZPXW9hE0XT7FIvmTxyDF-65" vertex="1">
          <mxGeometry y="180" width="290" height="30" as="geometry" />
        </mxCell>
        <mxCell id="ZPXW9hE0XT7FIvmTxyDF-72" style="edgeStyle=orthogonalEdgeStyle;rounded=0;orthogonalLoop=1;jettySize=auto;html=1;entryX=0;entryY=0.095;entryDx=0;entryDy=0;entryPerimeter=0;" parent="1" source="ZPXW9hE0XT7FIvmTxyDF-58" target="ZPXW9hE0XT7FIvmTxyDF-65" edge="1">
          <mxGeometry relative="1" as="geometry" />
        </mxCell>
        <mxCell id="ZPXW9hE0XT7FIvmTxyDF-73" value="21 - Tu vois que tu as une ouverture" style="swimlane;fontStyle=0;childLayout=stackLayout;horizontal=1;startSize=30;horizontalStack=0;resizeParent=1;resizeParentMax=0;resizeLast=0;collapsible=1;marginBottom=0;whiteSpace=wrap;html=1;" parent="1" vertex="1">
          <mxGeometry x="3680" y="10" width="290" height="120" as="geometry" />
        </mxCell>
        <mxCell id="ZPXW9hE0XT7FIvmTxyDF-74" value="24 - Essayer de démarrer la voiture" style="text;strokeColor=none;fillColor=none;align=left;verticalAlign=middle;spacingLeft=4;spacingRight=4;overflow=hidden;points=[[0,0.5],[1,0.5]];portConstraint=eastwest;rotatable=0;whiteSpace=wrap;html=1;" parent="ZPXW9hE0XT7FIvmTxyDF-73" vertex="1">
          <mxGeometry y="30" width="290" height="30" as="geometry" />
        </mxCell>
        <mxCell id="ZPXW9hE0XT7FIvmTxyDF-75" value="25 - Claxonner" style="text;strokeColor=none;fillColor=none;align=left;verticalAlign=middle;spacingLeft=4;spacingRight=4;overflow=hidden;points=[[0,0.5],[1,0.5]];portConstraint=eastwest;rotatable=0;whiteSpace=wrap;html=1;" parent="ZPXW9hE0XT7FIvmTxyDF-73" vertex="1">
          <mxGeometry y="60" width="290" height="30" as="geometry" />
        </mxCell>
        <mxCell id="ZPXW9hE0XT7FIvmTxyDF-76" value="26 - Ouvrir violemment la porte" style="text;strokeColor=none;fillColor=none;align=left;verticalAlign=middle;spacingLeft=4;spacingRight=4;overflow=hidden;points=[[0,0.5],[1,0.5]];portConstraint=eastwest;rotatable=0;whiteSpace=wrap;html=1;" parent="ZPXW9hE0XT7FIvmTxyDF-73" vertex="1">
          <mxGeometry y="90" width="290" height="30" as="geometry" />
        </mxCell>
        <mxCell id="ZPXW9hE0XT7FIvmTxyDF-80" style="edgeStyle=orthogonalEdgeStyle;rounded=0;orthogonalLoop=1;jettySize=auto;html=1;entryX=0;entryY=0.038;entryDx=0;entryDy=0;entryPerimeter=0;" parent="1" source="ZPXW9hE0XT7FIvmTxyDF-66" target="ZPXW9hE0XT7FIvmTxyDF-73" edge="1">
          <mxGeometry relative="1" as="geometry" />
        </mxCell>
        <mxCell id="ZPXW9hE0XT7FIvmTxyDF-81" style="edgeStyle=orthogonalEdgeStyle;rounded=0;orthogonalLoop=1;jettySize=auto;html=1;entryX=0.01;entryY=0.081;entryDx=0;entryDy=0;entryPerimeter=0;" parent="1" source="ZPXW9hE0XT7FIvmTxyDF-67" target="ZPXW9hE0XT7FIvmTxyDF-73" edge="1">
          <mxGeometry relative="1" as="geometry">
            <mxPoint x="3650" y="60" as="targetPoint" />
          </mxGeometry>
        </mxCell>
        <mxCell id="ZPXW9hE0XT7FIvmTxyDF-82" value="24 - Actions" style="swimlane;fontStyle=0;childLayout=stackLayout;horizontal=1;startSize=30;horizontalStack=0;resizeParent=1;resizeParentMax=0;resizeLast=0;collapsible=1;marginBottom=0;whiteSpace=wrap;html=1;" parent="1" vertex="1">
          <mxGeometry x="4130" y="10" width="290" height="120" as="geometry" />
        </mxCell>
        <mxCell id="ZPXW9hE0XT7FIvmTxyDF-83" value="24 - Essayer de démarrer la voiture" style="text;strokeColor=none;fillColor=none;align=left;verticalAlign=middle;spacingLeft=4;spacingRight=4;overflow=hidden;points=[[0,0.5],[1,0.5]];portConstraint=eastwest;rotatable=0;whiteSpace=wrap;html=1;" parent="ZPXW9hE0XT7FIvmTxyDF-82" vertex="1">
          <mxGeometry y="30" width="290" height="30" as="geometry" />
        </mxCell>
        <mxCell id="ZPXW9hE0XT7FIvmTxyDF-84" value="25 - Claxonner" style="text;strokeColor=none;fillColor=none;align=left;verticalAlign=middle;spacingLeft=4;spacingRight=4;overflow=hidden;points=[[0,0.5],[1,0.5]];portConstraint=eastwest;rotatable=0;whiteSpace=wrap;html=1;" parent="ZPXW9hE0XT7FIvmTxyDF-82" vertex="1">
          <mxGeometry y="60" width="290" height="30" as="geometry" />
        </mxCell>
        <mxCell id="ZPXW9hE0XT7FIvmTxyDF-85" value="26 - Ouvrir violemment la porte" style="text;strokeColor=none;fillColor=none;align=left;verticalAlign=middle;spacingLeft=4;spacingRight=4;overflow=hidden;points=[[0,0.5],[1,0.5]];portConstraint=eastwest;rotatable=0;whiteSpace=wrap;html=1;" parent="ZPXW9hE0XT7FIvmTxyDF-82" vertex="1">
          <mxGeometry y="90" width="290" height="30" as="geometry" />
        </mxCell>
        <mxCell id="ZPXW9hE0XT7FIvmTxyDF-86" style="edgeStyle=orthogonalEdgeStyle;rounded=0;orthogonalLoop=1;jettySize=auto;html=1;entryX=0;entryY=0.117;entryDx=0;entryDy=0;entryPerimeter=0;" parent="1" source="ZPXW9hE0XT7FIvmTxyDF-74" target="ZPXW9hE0XT7FIvmTxyDF-82" edge="1">
          <mxGeometry relative="1" as="geometry" />
        </mxCell>
        <mxCell id="ZPXW9hE0XT7FIvmTxyDF-87" value="END" style="swimlane;fontStyle=0;childLayout=stackLayout;horizontal=1;startSize=30;horizontalStack=0;resizeParent=1;resizeParentMax=0;resizeLast=0;collapsible=1;marginBottom=0;whiteSpace=wrap;html=1;" parent="1" vertex="1">
          <mxGeometry x="4520" y="10" width="290" height="60" as="geometry" />
        </mxCell>
        <mxCell id="ZPXW9hE0XT7FIvmTxyDF-88" value="RECAP" style="text;strokeColor=none;fillColor=none;align=left;verticalAlign=middle;spacingLeft=4;spacingRight=4;overflow=hidden;points=[[0,0.5],[1,0.5]];portConstraint=eastwest;rotatable=0;whiteSpace=wrap;html=1;" parent="ZPXW9hE0XT7FIvmTxyDF-87" vertex="1">
          <mxGeometry y="30" width="290" height="30" as="geometry" />
        </mxCell>
        <mxCell id="ZPXW9hE0XT7FIvmTxyDF-91" style="edgeStyle=orthogonalEdgeStyle;rounded=0;orthogonalLoop=1;jettySize=auto;html=1;entryX=0;entryY=0.25;entryDx=0;entryDy=0;" parent="1" source="ZPXW9hE0XT7FIvmTxyDF-83" target="ZPXW9hE0XT7FIvmTxyDF-87" edge="1">
          <mxGeometry relative="1" as="geometry" />
        </mxCell>
        <mxCell id="nVTl-8tVqh3ba6hpJfBi-1" value="1 - Tu veux en savoir plus sur ce qui t&#39;entoures" style="swimlane;fontStyle=0;childLayout=stackLayout;horizontal=1;startSize=30;horizontalStack=0;resizeParent=1;resizeParentMax=0;resizeLast=0;collapsible=1;marginBottom=0;whiteSpace=wrap;html=1;" vertex="1" parent="1">
          <mxGeometry x="850" y="210" width="240" height="150" as="geometry" />
        </mxCell>
        <mxCell id="nVTl-8tVqh3ba6hpJfBi-2" value="- tes poches" style="text;strokeColor=none;fillColor=none;align=left;verticalAlign=middle;spacingLeft=4;spacingRight=4;overflow=hidden;points=[[0,0.5],[1,0.5]];portConstraint=eastwest;rotatable=0;whiteSpace=wrap;html=1;" vertex="1" parent="nVTl-8tVqh3ba6hpJfBi-1">
          <mxGeometry y="30" width="240" height="30" as="geometry" />
        </mxCell>
        <mxCell id="nVTl-8tVqh3ba6hpJfBi-3" value="- tu te lèves" style="text;strokeColor=none;fillColor=none;align=left;verticalAlign=middle;spacingLeft=4;spacingRight=4;overflow=hidden;points=[[0,0.5],[1,0.5]];portConstraint=eastwest;rotatable=0;whiteSpace=wrap;html=1;" vertex="1" parent="nVTl-8tVqh3ba6hpJfBi-1">
          <mxGeometry y="60" width="240" height="30" as="geometry" />
        </mxCell>
        <mxCell id="nVTl-8tVqh3ba6hpJfBi-19" value="- tu veux crier" style="text;strokeColor=none;fillColor=none;align=left;verticalAlign=middle;spacingLeft=4;spacingRight=4;overflow=hidden;points=[[0,0.5],[1,0.5]];portConstraint=eastwest;rotatable=0;whiteSpace=wrap;html=1;" vertex="1" parent="nVTl-8tVqh3ba6hpJfBi-1">
          <mxGeometry y="90" width="240" height="30" as="geometry" />
        </mxCell>
        <mxCell id="nVTl-8tVqh3ba6hpJfBi-20" value="- tu tâtonnes autour de toi" style="text;strokeColor=none;fillColor=none;align=left;verticalAlign=middle;spacingLeft=4;spacingRight=4;overflow=hidden;points=[[0,0.5],[1,0.5]];portConstraint=eastwest;rotatable=0;whiteSpace=wrap;html=1;" vertex="1" parent="nVTl-8tVqh3ba6hpJfBi-1">
          <mxGeometry y="120" width="240" height="30" as="geometry" />
        </mxCell>
        <mxCell id="nVTl-8tVqh3ba6hpJfBi-5" style="edgeStyle=orthogonalEdgeStyle;rounded=0;orthogonalLoop=1;jettySize=auto;html=1;entryX=-0.004;entryY=0.078;entryDx=0;entryDy=0;entryPerimeter=0;" edge="1" parent="1" source="ZPXW9hE0XT7FIvmTxyDF-13" target="nVTl-8tVqh3ba6hpJfBi-1">
          <mxGeometry relative="1" as="geometry" />
        </mxCell>
        <mxCell id="nVTl-8tVqh3ba6hpJfBi-6" style="edgeStyle=orthogonalEdgeStyle;rounded=0;orthogonalLoop=1;jettySize=auto;html=1;entryX=0.004;entryY=0.156;entryDx=0;entryDy=0;entryPerimeter=0;" edge="1" parent="1" source="ZPXW9hE0XT7FIvmTxyDF-7" target="nVTl-8tVqh3ba6hpJfBi-15">
          <mxGeometry relative="1" as="geometry">
            <Array as="points">
              <mxPoint x="750" y="215" />
              <mxPoint x="750" y="434" />
            </Array>
          </mxGeometry>
        </mxCell>
        <mxCell id="nVTl-8tVqh3ba6hpJfBi-7" value="- Actions" style="swimlane;fontStyle=0;childLayout=stackLayout;horizontal=1;startSize=30;horizontalStack=0;resizeParent=1;resizeParentMax=0;resizeLast=0;collapsible=1;marginBottom=0;whiteSpace=wrap;html=1;" vertex="1" parent="1">
          <mxGeometry x="1169" y="210" width="240" height="210" as="geometry" />
        </mxCell>
        <mxCell id="nVTl-8tVqh3ba6hpJfBi-8" value="A - fouiller tiroir [Réussite]" style="text;strokeColor=none;fillColor=none;align=left;verticalAlign=middle;spacingLeft=4;spacingRight=4;overflow=hidden;points=[[0,0.5],[1,0.5]];portConstraint=eastwest;rotatable=0;whiteSpace=wrap;html=1;" vertex="1" parent="nVTl-8tVqh3ba6hpJfBi-7">
          <mxGeometry y="30" width="240" height="30" as="geometry" />
        </mxCell>
        <mxCell id="nVTl-8tVqh3ba6hpJfBi-9" value="A - fouiller tiroir&amp;nbsp;&amp;nbsp;[Echec]" style="text;strokeColor=none;fillColor=none;align=left;verticalAlign=middle;spacingLeft=4;spacingRight=4;overflow=hidden;points=[[0,0.5],[1,0.5]];portConstraint=eastwest;rotatable=0;whiteSpace=wrap;html=1;" vertex="1" parent="nVTl-8tVqh3ba6hpJfBi-7">
          <mxGeometry y="60" width="240" height="30" as="geometry" />
        </mxCell>
        <mxCell id="nVTl-8tVqh3ba6hpJfBi-10" value="B - ouvrir le volet par la force [Réussite]" style="text;strokeColor=none;fillColor=none;align=left;verticalAlign=middle;spacingLeft=4;spacingRight=4;overflow=hidden;points=[[0,0.5],[1,0.5]];portConstraint=eastwest;rotatable=0;whiteSpace=wrap;html=1;" vertex="1" parent="nVTl-8tVqh3ba6hpJfBi-7">
          <mxGeometry y="90" width="240" height="30" as="geometry" />
        </mxCell>
        <mxCell id="nVTl-8tVqh3ba6hpJfBi-11" value="B - ouvrir le volet par la force [Echec]" style="text;strokeColor=none;fillColor=none;align=left;verticalAlign=middle;spacingLeft=4;spacingRight=4;overflow=hidden;points=[[0,0.5],[1,0.5]];portConstraint=eastwest;rotatable=0;whiteSpace=wrap;html=1;" vertex="1" parent="nVTl-8tVqh3ba6hpJfBi-7">
          <mxGeometry y="120" width="240" height="30" as="geometry" />
        </mxCell>
        <mxCell id="nVTl-8tVqh3ba6hpJfBi-12" value="C - ouvrir volet avec manivelle [Réussite]" style="text;strokeColor=none;fillColor=none;align=left;verticalAlign=middle;spacingLeft=4;spacingRight=4;overflow=hidden;points=[[0,0.5],[1,0.5]];portConstraint=eastwest;rotatable=0;whiteSpace=wrap;html=1;" vertex="1" parent="nVTl-8tVqh3ba6hpJfBi-7">
          <mxGeometry y="150" width="240" height="30" as="geometry" />
        </mxCell>
        <mxCell id="nVTl-8tVqh3ba6hpJfBi-13" value="C - ouvrir volet avec manivelle [Echec]" style="text;strokeColor=none;fillColor=none;align=left;verticalAlign=middle;spacingLeft=4;spacingRight=4;overflow=hidden;points=[[0,0.5],[1,0.5]];portConstraint=eastwest;rotatable=0;whiteSpace=wrap;html=1;" vertex="1" parent="nVTl-8tVqh3ba6hpJfBi-7">
          <mxGeometry y="180" width="240" height="30" as="geometry" />
        </mxCell>
        <mxCell id="nVTl-8tVqh3ba6hpJfBi-14" style="edgeStyle=orthogonalEdgeStyle;rounded=0;orthogonalLoop=1;jettySize=auto;html=1;entryX=0.008;entryY=0.052;entryDx=0;entryDy=0;entryPerimeter=0;" edge="1" parent="1" source="nVTl-8tVqh3ba6hpJfBi-2" target="nVTl-8tVqh3ba6hpJfBi-7">
          <mxGeometry relative="1" as="geometry" />
        </mxCell>
        <mxCell id="nVTl-8tVqh3ba6hpJfBi-15" value="1 - Tu veux en savoir plus sur ce qui t&#39;entoures" style="swimlane;fontStyle=0;childLayout=stackLayout;horizontal=1;startSize=30;horizontalStack=0;resizeParent=1;resizeParentMax=0;resizeLast=0;collapsible=1;marginBottom=0;whiteSpace=wrap;html=1;" vertex="1" parent="1">
          <mxGeometry x="850" y="420" width="240" height="120" as="geometry" />
        </mxCell>
        <mxCell id="nVTl-8tVqh3ba6hpJfBi-16" value="- tes poches" style="text;strokeColor=none;fillColor=none;align=left;verticalAlign=middle;spacingLeft=4;spacingRight=4;overflow=hidden;points=[[0,0.5],[1,0.5]];portConstraint=eastwest;rotatable=0;whiteSpace=wrap;html=1;" vertex="1" parent="nVTl-8tVqh3ba6hpJfBi-15">
          <mxGeometry y="30" width="240" height="30" as="geometry" />
        </mxCell>
        <mxCell id="nVTl-8tVqh3ba6hpJfBi-17" value="- tu te lèves" style="text;strokeColor=none;fillColor=none;align=left;verticalAlign=middle;spacingLeft=4;spacingRight=4;overflow=hidden;points=[[0,0.5],[1,0.5]];portConstraint=eastwest;rotatable=0;whiteSpace=wrap;html=1;" vertex="1" parent="nVTl-8tVqh3ba6hpJfBi-15">
          <mxGeometry y="60" width="240" height="30" as="geometry" />
        </mxCell>
        <mxCell id="nVTl-8tVqh3ba6hpJfBi-21" value="- tu tâtonnes autour de toi" style="text;strokeColor=none;fillColor=none;align=left;verticalAlign=middle;spacingLeft=4;spacingRight=4;overflow=hidden;points=[[0,0.5],[1,0.5]];portConstraint=eastwest;rotatable=0;whiteSpace=wrap;html=1;" vertex="1" parent="nVTl-8tVqh3ba6hpJfBi-15">
          <mxGeometry y="90" width="240" height="30" as="geometry" />
        </mxCell>
        <mxCell id="nVTl-8tVqh3ba6hpJfBi-27" value="6 - Actions" style="swimlane;fontStyle=0;childLayout=stackLayout;horizontal=1;startSize=30;horizontalStack=0;resizeParent=1;resizeParentMax=0;resizeLast=0;collapsible=1;marginBottom=0;whiteSpace=wrap;html=1;" vertex="1" parent="1">
          <mxGeometry x="1169" y="-230" width="240" height="150" as="geometry" />
        </mxCell>
        <mxCell id="nVTl-8tVqh3ba6hpJfBi-28" value="A - fouille réfléchit [Réussite]" style="text;strokeColor=none;fillColor=none;align=left;verticalAlign=middle;spacingLeft=4;spacingRight=4;overflow=hidden;points=[[0,0.5],[1,0.5]];portConstraint=eastwest;rotatable=0;whiteSpace=wrap;html=1;" vertex="1" parent="nVTl-8tVqh3ba6hpJfBi-27">
          <mxGeometry y="30" width="240" height="30" as="geometry" />
        </mxCell>
        <mxCell id="nVTl-8tVqh3ba6hpJfBi-29" value="A - fouille réfléchit [Echec]" style="text;strokeColor=none;fillColor=none;align=left;verticalAlign=middle;spacingLeft=4;spacingRight=4;overflow=hidden;points=[[0,0.5],[1,0.5]];portConstraint=eastwest;rotatable=0;whiteSpace=wrap;html=1;" vertex="1" parent="nVTl-8tVqh3ba6hpJfBi-27">
          <mxGeometry y="60" width="240" height="30" as="geometry" />
        </mxCell>
        <mxCell id="nVTl-8tVqh3ba6hpJfBi-30" value="B - fouille rapide [Réussite]" style="text;strokeColor=none;fillColor=none;align=left;verticalAlign=middle;spacingLeft=4;spacingRight=4;overflow=hidden;points=[[0,0.5],[1,0.5]];portConstraint=eastwest;rotatable=0;whiteSpace=wrap;html=1;" vertex="1" parent="nVTl-8tVqh3ba6hpJfBi-27">
          <mxGeometry y="90" width="240" height="30" as="geometry" />
        </mxCell>
        <mxCell id="nVTl-8tVqh3ba6hpJfBi-31" value="B - fouille rapide&amp;nbsp;[Echec]" style="text;strokeColor=none;fillColor=none;align=left;verticalAlign=middle;spacingLeft=4;spacingRight=4;overflow=hidden;points=[[0,0.5],[1,0.5]];portConstraint=eastwest;rotatable=0;whiteSpace=wrap;html=1;" vertex="1" parent="nVTl-8tVqh3ba6hpJfBi-27">
          <mxGeometry y="120" width="240" height="30" as="geometry" />
        </mxCell>
        <mxCell id="nVTl-8tVqh3ba6hpJfBi-34" style="edgeStyle=orthogonalEdgeStyle;rounded=0;orthogonalLoop=1;jettySize=auto;html=1;entryX=0.004;entryY=0.081;entryDx=0;entryDy=0;entryPerimeter=0;" edge="1" parent="1" source="ZPXW9hE0XT7FIvmTxyDF-11" target="nVTl-8tVqh3ba6hpJfBi-27">
          <mxGeometry relative="1" as="geometry">
            <Array as="points">
              <mxPoint x="1110" y="55" />
              <mxPoint x="1110" y="-213" />
              <mxPoint x="1140" y="-213" />
              <mxPoint x="1140" y="-218" />
            </Array>
          </mxGeometry>
        </mxCell>
        <mxCell id="nVTl-8tVqh3ba6hpJfBi-35" value="6 - Tu prends tout ton temps" style="swimlane;fontStyle=0;childLayout=stackLayout;horizontal=1;startSize=30;horizontalStack=0;resizeParent=1;resizeParentMax=0;resizeLast=0;collapsible=1;marginBottom=0;whiteSpace=wrap;html=1;" vertex="1" parent="1">
          <mxGeometry x="1540" y="-260" width="240" height="120" as="geometry" />
        </mxCell>
        <mxCell id="nVTl-8tVqh3ba6hpJfBi-36" value="27 - tu te lèves" style="text;strokeColor=none;fillColor=none;align=left;verticalAlign=middle;spacingLeft=4;spacingRight=4;overflow=hidden;points=[[0,0.5],[1,0.5]];portConstraint=eastwest;rotatable=0;whiteSpace=wrap;html=1;" vertex="1" parent="nVTl-8tVqh3ba6hpJfBi-35">
          <mxGeometry y="30" width="240" height="30" as="geometry" />
        </mxCell>
        <mxCell id="nVTl-8tVqh3ba6hpJfBi-37" value="4 - appuyer bouton manette" style="text;strokeColor=none;fillColor=none;align=left;verticalAlign=middle;spacingLeft=4;spacingRight=4;overflow=hidden;points=[[0,0.5],[1,0.5]];portConstraint=eastwest;rotatable=0;whiteSpace=wrap;html=1;" vertex="1" parent="nVTl-8tVqh3ba6hpJfBi-35">
          <mxGeometry y="60" width="240" height="30" as="geometry" />
        </mxCell>
        <mxCell id="nVTl-8tVqh3ba6hpJfBi-42" value="29 - tu ne fais plus de bruit et tu écoutes" style="text;strokeColor=none;fillColor=none;align=left;verticalAlign=middle;spacingLeft=4;spacingRight=4;overflow=hidden;points=[[0,0.5],[1,0.5]];portConstraint=eastwest;rotatable=0;whiteSpace=wrap;html=1;" vertex="1" parent="nVTl-8tVqh3ba6hpJfBi-35">
          <mxGeometry y="90" width="240" height="30" as="geometry" />
        </mxCell>
        <mxCell id="nVTl-8tVqh3ba6hpJfBi-48" value="27 - Actions" style="swimlane;fontStyle=0;childLayout=stackLayout;horizontal=1;startSize=30;horizontalStack=0;resizeParent=1;resizeParentMax=0;resizeLast=0;collapsible=1;marginBottom=0;whiteSpace=wrap;html=1;" vertex="1" parent="1">
          <mxGeometry x="1850" y="-470" width="240" height="150" as="geometry" />
        </mxCell>
        <mxCell id="nVTl-8tVqh3ba6hpJfBi-50" value="A - tu te lèves brutalement [Réussite]" style="text;strokeColor=none;fillColor=none;align=left;verticalAlign=middle;spacingLeft=4;spacingRight=4;overflow=hidden;points=[[0,0.5],[1,0.5]];portConstraint=eastwest;rotatable=0;whiteSpace=wrap;html=1;" vertex="1" parent="nVTl-8tVqh3ba6hpJfBi-48">
          <mxGeometry y="30" width="240" height="30" as="geometry" />
        </mxCell>
        <mxCell id="nVTl-8tVqh3ba6hpJfBi-51" value="A - tu te lèves brutalement&amp;nbsp;[Echec]" style="text;strokeColor=none;fillColor=none;align=left;verticalAlign=middle;spacingLeft=4;spacingRight=4;overflow=hidden;points=[[0,0.5],[1,0.5]];portConstraint=eastwest;rotatable=0;whiteSpace=wrap;html=1;" vertex="1" parent="nVTl-8tVqh3ba6hpJfBi-48">
          <mxGeometry y="60" width="240" height="30" as="geometry" />
        </mxCell>
        <mxCell id="nVTl-8tVqh3ba6hpJfBi-53" value="B - tu prends ton temps [Réussite]" style="text;strokeColor=none;fillColor=none;align=left;verticalAlign=middle;spacingLeft=4;spacingRight=4;overflow=hidden;points=[[0,0.5],[1,0.5]];portConstraint=eastwest;rotatable=0;whiteSpace=wrap;html=1;" vertex="1" parent="nVTl-8tVqh3ba6hpJfBi-48">
          <mxGeometry y="90" width="240" height="30" as="geometry" />
        </mxCell>
        <mxCell id="nVTl-8tVqh3ba6hpJfBi-55" value="B - tu prends ton temps&amp;nbsp;[Echec]" style="text;strokeColor=none;fillColor=none;align=left;verticalAlign=middle;spacingLeft=4;spacingRight=4;overflow=hidden;points=[[0,0.5],[1,0.5]];portConstraint=eastwest;rotatable=0;whiteSpace=wrap;html=1;" vertex="1" parent="nVTl-8tVqh3ba6hpJfBi-48">
          <mxGeometry y="120" width="240" height="30" as="geometry" />
        </mxCell>
        <mxCell id="nVTl-8tVqh3ba6hpJfBi-56" style="edgeStyle=orthogonalEdgeStyle;rounded=0;orthogonalLoop=1;jettySize=auto;html=1;entryX=-0.008;entryY=0.12;entryDx=0;entryDy=0;entryPerimeter=0;exitX=1;exitY=0.147;exitDx=0;exitDy=0;exitPerimeter=0;" edge="1" parent="1" source="nVTl-8tVqh3ba6hpJfBi-27" target="nVTl-8tVqh3ba6hpJfBi-35">
          <mxGeometry relative="1" as="geometry" />
        </mxCell>
        <mxCell id="nVTl-8tVqh3ba6hpJfBi-58" style="edgeStyle=orthogonalEdgeStyle;rounded=0;orthogonalLoop=1;jettySize=auto;html=1;entryX=-0.004;entryY=0.12;entryDx=0;entryDy=0;entryPerimeter=0;" edge="1" parent="1" source="nVTl-8tVqh3ba6hpJfBi-36" target="nVTl-8tVqh3ba6hpJfBi-48">
          <mxGeometry relative="1" as="geometry" />
        </mxCell>
        <mxCell id="nVTl-8tVqh3ba6hpJfBi-59" value="27 - tu te rassois de ta volonté ou non" style="swimlane;fontStyle=0;childLayout=stackLayout;horizontal=1;startSize=30;horizontalStack=0;resizeParent=1;resizeParentMax=0;resizeLast=0;collapsible=1;marginBottom=0;whiteSpace=wrap;html=1;" vertex="1" parent="1">
          <mxGeometry x="2160" y="-470" width="290" height="120" as="geometry" />
        </mxCell>
        <mxCell id="nVTl-8tVqh3ba6hpJfBi-60" value="4 - appuyer bouton manette" style="text;strokeColor=none;fillColor=none;align=left;verticalAlign=middle;spacingLeft=4;spacingRight=4;overflow=hidden;points=[[0,0.5],[1,0.5]];portConstraint=eastwest;rotatable=0;whiteSpace=wrap;html=1;" vertex="1" parent="nVTl-8tVqh3ba6hpJfBi-59">
          <mxGeometry y="30" width="290" height="30" as="geometry" />
        </mxCell>
        <mxCell id="nVTl-8tVqh3ba6hpJfBi-62" value="30 - tu ne fais plus de bruit et tu écoutes" style="text;strokeColor=none;fillColor=none;align=left;verticalAlign=middle;spacingLeft=4;spacingRight=4;overflow=hidden;points=[[0,0.5],[1,0.5]];portConstraint=eastwest;rotatable=0;whiteSpace=wrap;html=1;" vertex="1" parent="nVTl-8tVqh3ba6hpJfBi-59">
          <mxGeometry y="60" width="290" height="30" as="geometry" />
        </mxCell>
        <mxCell id="nVTl-8tVqh3ba6hpJfBi-63" value="31 - appuyer bouton manette" style="text;strokeColor=none;fillColor=none;align=left;verticalAlign=middle;spacingLeft=4;spacingRight=4;overflow=hidden;points=[[0,0.5],[1,0.5]];portConstraint=eastwest;rotatable=0;whiteSpace=wrap;html=1;" vertex="1" parent="nVTl-8tVqh3ba6hpJfBi-59">
          <mxGeometry y="90" width="290" height="30" as="geometry" />
        </mxCell>
        <mxCell id="nVTl-8tVqh3ba6hpJfBi-65" style="edgeStyle=orthogonalEdgeStyle;rounded=0;orthogonalLoop=1;jettySize=auto;html=1;entryX=-0.014;entryY=0.107;entryDx=0;entryDy=0;entryPerimeter=0;exitX=1.004;exitY=0.127;exitDx=0;exitDy=0;exitPerimeter=0;" edge="1" parent="1" source="nVTl-8tVqh3ba6hpJfBi-48" target="nVTl-8tVqh3ba6hpJfBi-59">
          <mxGeometry relative="1" as="geometry" />
        </mxCell>
        <mxCell id="nVTl-8tVqh3ba6hpJfBi-66" value="28 - Actions" style="swimlane;fontStyle=0;childLayout=stackLayout;horizontal=1;startSize=30;horizontalStack=0;resizeParent=1;resizeParentMax=0;resizeLast=0;collapsible=1;marginBottom=0;whiteSpace=wrap;html=1;" vertex="1" parent="1">
          <mxGeometry x="1870" y="-270" width="240" height="150" as="geometry" />
        </mxCell>
        <mxCell id="nVTl-8tVqh3ba6hpJfBi-67" value="A -&amp;nbsp; [Réussite]" style="text;strokeColor=none;fillColor=none;align=left;verticalAlign=middle;spacingLeft=4;spacingRight=4;overflow=hidden;points=[[0,0.5],[1,0.5]];portConstraint=eastwest;rotatable=0;whiteSpace=wrap;html=1;" vertex="1" parent="nVTl-8tVqh3ba6hpJfBi-66">
          <mxGeometry y="30" width="240" height="30" as="geometry" />
        </mxCell>
        <mxCell id="nVTl-8tVqh3ba6hpJfBi-68" value="A -&amp;nbsp; [Echec]" style="text;strokeColor=none;fillColor=none;align=left;verticalAlign=middle;spacingLeft=4;spacingRight=4;overflow=hidden;points=[[0,0.5],[1,0.5]];portConstraint=eastwest;rotatable=0;whiteSpace=wrap;html=1;" vertex="1" parent="nVTl-8tVqh3ba6hpJfBi-66">
          <mxGeometry y="60" width="240" height="30" as="geometry" />
        </mxCell>
        <mxCell id="nVTl-8tVqh3ba6hpJfBi-69" value="B -&amp;nbsp; [Réussite]" style="text;strokeColor=none;fillColor=none;align=left;verticalAlign=middle;spacingLeft=4;spacingRight=4;overflow=hidden;points=[[0,0.5],[1,0.5]];portConstraint=eastwest;rotatable=0;whiteSpace=wrap;html=1;" vertex="1" parent="nVTl-8tVqh3ba6hpJfBi-66">
          <mxGeometry y="90" width="240" height="30" as="geometry" />
        </mxCell>
        <mxCell id="nVTl-8tVqh3ba6hpJfBi-70" value="B -&amp;nbsp; [Echec]" style="text;strokeColor=none;fillColor=none;align=left;verticalAlign=middle;spacingLeft=4;spacingRight=4;overflow=hidden;points=[[0,0.5],[1,0.5]];portConstraint=eastwest;rotatable=0;whiteSpace=wrap;html=1;" vertex="1" parent="nVTl-8tVqh3ba6hpJfBi-66">
          <mxGeometry y="120" width="240" height="30" as="geometry" />
        </mxCell>
        <mxCell id="nVTl-8tVqh3ba6hpJfBi-71" style="edgeStyle=orthogonalEdgeStyle;rounded=0;orthogonalLoop=1;jettySize=auto;html=1;entryX=-0.004;entryY=0.153;entryDx=0;entryDy=0;entryPerimeter=0;" edge="1" parent="1" source="nVTl-8tVqh3ba6hpJfBi-60" target="nVTl-8tVqh3ba6hpJfBi-66">
          <mxGeometry relative="1" as="geometry">
            <Array as="points">
              <mxPoint x="2150" y="-425" />
              <mxPoint x="2150" y="-300" />
              <mxPoint x="1830" y="-300" />
              <mxPoint x="1830" y="-247" />
            </Array>
          </mxGeometry>
        </mxCell>
        <mxCell id="nVTl-8tVqh3ba6hpJfBi-72" style="edgeStyle=orthogonalEdgeStyle;rounded=0;orthogonalLoop=1;jettySize=auto;html=1;entryX=0.004;entryY=0.147;entryDx=0;entryDy=0;entryPerimeter=0;" edge="1" parent="1" source="nVTl-8tVqh3ba6hpJfBi-37" target="nVTl-8tVqh3ba6hpJfBi-66">
          <mxGeometry relative="1" as="geometry">
            <Array as="points">
              <mxPoint x="1830" y="-185" />
              <mxPoint x="1830" y="-248" />
            </Array>
          </mxGeometry>
        </mxCell>
      </root>
    </mxGraphModel>
  </diagram>
  <diagram name="Copie de Page-1" id="m_a13MJ87UJKYPncnSow">
    <mxGraphModel dx="2814" dy="1672" grid="1" gridSize="10" guides="1" tooltips="1" connect="1" arrows="1" fold="1" page="1" pageScale="1" pageWidth="1169" pageHeight="827" math="0" shadow="0">
      <root>
        <mxCell id="pnk6eSNMhnhxJrGRFuTv-0" />
        <mxCell id="pnk6eSNMhnhxJrGRFuTv-1" parent="pnk6eSNMhnhxJrGRFuTv-0" />
        <mxCell id="pnk6eSNMhnhxJrGRFuTv-2" value="0 - Position assise" style="swimlane;fontStyle=0;childLayout=stackLayout;horizontal=1;startSize=30;horizontalStack=0;resizeParent=1;resizeParentMax=0;resizeLast=0;collapsible=1;marginBottom=0;whiteSpace=wrap;html=1;" vertex="1" parent="pnk6eSNMhnhxJrGRFuTv-1">
          <mxGeometry x="-40" y="220" width="140" height="120" as="geometry" />
        </mxCell>
        <mxCell id="pnk6eSNMhnhxJrGRFuTv-3" value="1 - autour de toi" style="text;strokeColor=none;fillColor=none;align=left;verticalAlign=middle;spacingLeft=4;spacingRight=4;overflow=hidden;points=[[0,0.5],[1,0.5]];portConstraint=eastwest;rotatable=0;whiteSpace=wrap;html=1;" vertex="1" parent="pnk6eSNMhnhxJrGRFuTv-2">
          <mxGeometry y="30" width="140" height="30" as="geometry" />
        </mxCell>
        <mxCell id="pnk6eSNMhnhxJrGRFuTv-4" value="2 - Tes poches" style="text;strokeColor=none;fillColor=none;align=left;verticalAlign=middle;spacingLeft=4;spacingRight=4;overflow=hidden;points=[[0,0.5],[1,0.5]];portConstraint=eastwest;rotatable=0;whiteSpace=wrap;html=1;" vertex="1" parent="pnk6eSNMhnhxJrGRFuTv-2">
          <mxGeometry y="60" width="140" height="30" as="geometry" />
        </mxCell>
        <mxCell id="pnk6eSNMhnhxJrGRFuTv-5" value="3 - Tu te lèves" style="text;strokeColor=none;fillColor=none;align=left;verticalAlign=middle;spacingLeft=4;spacingRight=4;overflow=hidden;points=[[0,0.5],[1,0.5]];portConstraint=eastwest;rotatable=0;whiteSpace=wrap;html=1;" vertex="1" parent="pnk6eSNMhnhxJrGRFuTv-2">
          <mxGeometry y="90" width="140" height="30" as="geometry" />
        </mxCell>
        <mxCell id="pnk6eSNMhnhxJrGRFuTv-6" value="1 - Actions" style="swimlane;fontStyle=0;childLayout=stackLayout;horizontal=1;startSize=30;horizontalStack=0;resizeParent=1;resizeParentMax=0;resizeLast=0;collapsible=1;marginBottom=0;whiteSpace=wrap;html=1;" vertex="1" parent="pnk6eSNMhnhxJrGRFuTv-1">
          <mxGeometry x="540" y="80" width="290" height="150" as="geometry" />
        </mxCell>
        <mxCell id="pnk6eSNMhnhxJrGRFuTv-7" value="A - Tu tâtonnes concensieusement [Réussite]" style="text;strokeColor=none;fillColor=none;align=left;verticalAlign=middle;spacingLeft=4;spacingRight=4;overflow=hidden;points=[[0,0.5],[1,0.5]];portConstraint=eastwest;rotatable=0;whiteSpace=wrap;html=1;" vertex="1" parent="pnk6eSNMhnhxJrGRFuTv-6">
          <mxGeometry y="30" width="290" height="30" as="geometry" />
        </mxCell>
        <mxCell id="pnk6eSNMhnhxJrGRFuTv-8" value="B - Tu tâtonnes concensieusement&amp;nbsp;&amp;nbsp;[Echec]" style="text;strokeColor=none;fillColor=none;align=left;verticalAlign=middle;spacingLeft=4;spacingRight=4;overflow=hidden;points=[[0,0.5],[1,0.5]];portConstraint=eastwest;rotatable=0;whiteSpace=wrap;html=1;" vertex="1" parent="pnk6eSNMhnhxJrGRFuTv-6">
          <mxGeometry y="60" width="290" height="30" as="geometry" />
        </mxCell>
        <mxCell id="pnk6eSNMhnhxJrGRFuTv-9" value="C - Tu tâtonnes rapidement [Réussite]" style="text;strokeColor=none;fillColor=none;align=left;verticalAlign=middle;spacingLeft=4;spacingRight=4;overflow=hidden;points=[[0,0.5],[1,0.5]];portConstraint=eastwest;rotatable=0;whiteSpace=wrap;html=1;" vertex="1" parent="pnk6eSNMhnhxJrGRFuTv-6">
          <mxGeometry y="90" width="290" height="30" as="geometry" />
        </mxCell>
        <mxCell id="pnk6eSNMhnhxJrGRFuTv-10" value="D - Tu tâtonnes&amp;nbsp;rapidement&amp;nbsp;&amp;nbsp;[Echec]" style="text;strokeColor=none;fillColor=none;align=left;verticalAlign=middle;spacingLeft=4;spacingRight=4;overflow=hidden;points=[[0,0.5],[1,0.5]];portConstraint=eastwest;rotatable=0;whiteSpace=wrap;html=1;" vertex="1" parent="pnk6eSNMhnhxJrGRFuTv-6">
          <mxGeometry y="120" width="290" height="30" as="geometry" />
        </mxCell>
        <mxCell id="pnk6eSNMhnhxJrGRFuTv-11" style="edgeStyle=orthogonalEdgeStyle;rounded=0;orthogonalLoop=1;jettySize=auto;html=1;entryX=-0.004;entryY=0.113;entryDx=0;entryDy=0;entryPerimeter=0;" edge="1" parent="pnk6eSNMhnhxJrGRFuTv-1" source="pnk6eSNMhnhxJrGRFuTv-3" target="pnk6eSNMhnhxJrGRFuTv-6">
          <mxGeometry relative="1" as="geometry">
            <Array as="points">
              <mxPoint x="520" y="265" />
              <mxPoint x="520" y="97" />
            </Array>
          </mxGeometry>
        </mxCell>
        <mxCell id="pnk6eSNMhnhxJrGRFuTv-12" value="1 - La télé s&#39;allume en sortant la manette du canapé" style="swimlane;fontStyle=0;childLayout=stackLayout;horizontal=1;startSize=30;horizontalStack=0;resizeParent=1;resizeParentMax=0;resizeLast=0;collapsible=1;marginBottom=0;whiteSpace=wrap;html=1;" vertex="1" parent="pnk6eSNMhnhxJrGRFuTv-1">
          <mxGeometry x="960" y="20" width="300" height="150" as="geometry" />
        </mxCell>
        <mxCell id="pnk6eSNMhnhxJrGRFuTv-13" value="6 - tes poches" style="text;strokeColor=none;fillColor=none;align=left;verticalAlign=middle;spacingLeft=4;spacingRight=4;overflow=hidden;points=[[0,0.5],[1,0.5]];portConstraint=eastwest;rotatable=0;whiteSpace=wrap;html=1;" vertex="1" parent="pnk6eSNMhnhxJrGRFuTv-12">
          <mxGeometry y="30" width="300" height="30" as="geometry" />
        </mxCell>
        <mxCell id="pnk6eSNMhnhxJrGRFuTv-20" value="9 - atteindre le bureau" style="text;strokeColor=none;fillColor=none;align=left;verticalAlign=middle;spacingLeft=4;spacingRight=4;overflow=hidden;points=[[0,0.5],[1,0.5]];portConstraint=eastwest;rotatable=0;whiteSpace=wrap;html=1;" vertex="1" parent="pnk6eSNMhnhxJrGRFuTv-12">
          <mxGeometry y="60" width="300" height="30" as="geometry" />
        </mxCell>
        <mxCell id="pnk6eSNMhnhxJrGRFuTv-21" value="10 - atteindre la porte" style="text;strokeColor=none;fillColor=none;align=left;verticalAlign=middle;spacingLeft=4;spacingRight=4;overflow=hidden;points=[[0,0.5],[1,0.5]];portConstraint=eastwest;rotatable=0;whiteSpace=wrap;html=1;" vertex="1" parent="pnk6eSNMhnhxJrGRFuTv-12">
          <mxGeometry y="90" width="300" height="30" as="geometry" />
        </mxCell>
        <mxCell id="pnk6eSNMhnhxJrGRFuTv-22" value="11 - atteindre la télé" style="text;strokeColor=none;fillColor=none;align=left;verticalAlign=middle;spacingLeft=4;spacingRight=4;overflow=hidden;points=[[0,0.5],[1,0.5]];portConstraint=eastwest;rotatable=0;whiteSpace=wrap;html=1;" vertex="1" parent="pnk6eSNMhnhxJrGRFuTv-12">
          <mxGeometry y="120" width="300" height="30" as="geometry" />
        </mxCell>
        <mxCell id="pnk6eSNMhnhxJrGRFuTv-24" value="10 - Actions" style="swimlane;fontStyle=0;childLayout=stackLayout;horizontal=1;startSize=30;horizontalStack=0;resizeParent=1;resizeParentMax=0;resizeLast=0;collapsible=1;marginBottom=0;whiteSpace=wrap;html=1;" vertex="1" parent="pnk6eSNMhnhxJrGRFuTv-1">
          <mxGeometry x="2020" y="195" width="340" height="150" as="geometry" />
        </mxCell>
        <mxCell id="pnk6eSNMhnhxJrGRFuTv-25" value="A - fouiller tiroir consciencieusement [Réussite]" style="text;strokeColor=none;fillColor=none;align=left;verticalAlign=middle;spacingLeft=4;spacingRight=4;overflow=hidden;points=[[0,0.5],[1,0.5]];portConstraint=eastwest;rotatable=0;whiteSpace=wrap;html=1;" vertex="1" parent="pnk6eSNMhnhxJrGRFuTv-24">
          <mxGeometry y="30" width="340" height="30" as="geometry" />
        </mxCell>
        <mxCell id="pnk6eSNMhnhxJrGRFuTv-26" value="A - fouiller tiroir consciencieusement&amp;nbsp;&amp;nbsp;&amp;nbsp;[Echec]" style="text;strokeColor=none;fillColor=none;align=left;verticalAlign=middle;spacingLeft=4;spacingRight=4;overflow=hidden;points=[[0,0.5],[1,0.5]];portConstraint=eastwest;rotatable=0;whiteSpace=wrap;html=1;" vertex="1" parent="pnk6eSNMhnhxJrGRFuTv-24">
          <mxGeometry y="60" width="340" height="30" as="geometry" />
        </mxCell>
        <mxCell id="pnk6eSNMhnhxJrGRFuTv-27" value="B - fouiller tiroir&amp;nbsp; rapidement&amp;nbsp;[Réussite]" style="text;strokeColor=none;fillColor=none;align=left;verticalAlign=middle;spacingLeft=4;spacingRight=4;overflow=hidden;points=[[0,0.5],[1,0.5]];portConstraint=eastwest;rotatable=0;whiteSpace=wrap;html=1;" vertex="1" parent="pnk6eSNMhnhxJrGRFuTv-24">
          <mxGeometry y="90" width="340" height="30" as="geometry" />
        </mxCell>
        <mxCell id="pnk6eSNMhnhxJrGRFuTv-28" value="B - fouiller tiroir&amp;nbsp; rapidement&amp;nbsp;[Echec]" style="text;strokeColor=none;fillColor=none;align=left;verticalAlign=middle;spacingLeft=4;spacingRight=4;overflow=hidden;points=[[0,0.5],[1,0.5]];portConstraint=eastwest;rotatable=0;whiteSpace=wrap;html=1;" vertex="1" parent="pnk6eSNMhnhxJrGRFuTv-24">
          <mxGeometry y="120" width="340" height="30" as="geometry" />
        </mxCell>
        <mxCell id="pnk6eSNMhnhxJrGRFuTv-32" value="10 - tu ouvres le tiroir et tu scrutes" style="swimlane;fontStyle=0;childLayout=stackLayout;horizontal=1;startSize=30;horizontalStack=0;resizeParent=1;resizeParentMax=0;resizeLast=0;collapsible=1;marginBottom=0;whiteSpace=wrap;html=1;" vertex="1" parent="pnk6eSNMhnhxJrGRFuTv-1">
          <mxGeometry x="1980" y="-10" width="240" height="150" as="geometry" />
        </mxCell>
        <mxCell id="pnk6eSNMhnhxJrGRFuTv-33" value="12 - essayer d&#39;ouvrir le volet" style="text;strokeColor=none;fillColor=none;align=left;verticalAlign=middle;spacingLeft=4;spacingRight=4;overflow=hidden;points=[[0,0.5],[1,0.5]];portConstraint=eastwest;rotatable=0;whiteSpace=wrap;html=1;" vertex="1" parent="pnk6eSNMhnhxJrGRFuTv-32">
          <mxGeometry y="30" width="240" height="30" as="geometry" />
        </mxCell>
        <mxCell id="pnk6eSNMhnhxJrGRFuTv-34" value="11 - atteindre la télé" style="text;strokeColor=none;fillColor=none;align=left;verticalAlign=middle;spacingLeft=4;spacingRight=4;overflow=hidden;points=[[0,0.5],[1,0.5]];portConstraint=eastwest;rotatable=0;whiteSpace=wrap;html=1;" vertex="1" parent="pnk6eSNMhnhxJrGRFuTv-32">
          <mxGeometry y="60" width="240" height="30" as="geometry" />
        </mxCell>
        <mxCell id="pnk6eSNMhnhxJrGRFuTv-35" value="15 - atteindre la porte" style="text;strokeColor=none;fillColor=none;align=left;verticalAlign=middle;spacingLeft=4;spacingRight=4;overflow=hidden;points=[[0,0.5],[1,0.5]];portConstraint=eastwest;rotatable=0;whiteSpace=wrap;html=1;" vertex="1" parent="pnk6eSNMhnhxJrGRFuTv-32">
          <mxGeometry y="90" width="240" height="30" as="geometry" />
        </mxCell>
        <mxCell id="iAANMyzKoAnhCtGlSeD2-65" value="4 - tu ne fais plus de bruit et tu écoutes" style="text;strokeColor=none;fillColor=none;align=left;verticalAlign=middle;spacingLeft=4;spacingRight=4;overflow=hidden;points=[[0,0.5],[1,0.5]];portConstraint=eastwest;rotatable=0;whiteSpace=wrap;html=1;" vertex="1" parent="pnk6eSNMhnhxJrGRFuTv-32">
          <mxGeometry y="120" width="240" height="30" as="geometry" />
        </mxCell>
        <mxCell id="pnk6eSNMhnhxJrGRFuTv-39" value="15 - tu arrives devant la porte" style="swimlane;fontStyle=0;childLayout=stackLayout;horizontal=1;startSize=30;horizontalStack=0;resizeParent=1;resizeParentMax=0;resizeLast=0;collapsible=1;marginBottom=0;whiteSpace=wrap;html=1;" vertex="1" parent="pnk6eSNMhnhxJrGRFuTv-1">
          <mxGeometry x="2865" y="-10" width="290" height="150" as="geometry" />
        </mxCell>
        <mxCell id="pnk6eSNMhnhxJrGRFuTv-40" value="9 - atteindre le bureau" style="text;strokeColor=none;fillColor=none;align=left;verticalAlign=middle;spacingLeft=4;spacingRight=4;overflow=hidden;points=[[0,0.5],[1,0.5]];portConstraint=eastwest;rotatable=0;whiteSpace=wrap;html=1;" vertex="1" parent="pnk6eSNMhnhxJrGRFuTv-39">
          <mxGeometry y="30" width="290" height="30" as="geometry" />
        </mxCell>
        <mxCell id="pnk6eSNMhnhxJrGRFuTv-41" value="11 - atteindre la télé" style="text;strokeColor=none;fillColor=none;align=left;verticalAlign=middle;spacingLeft=4;spacingRight=4;overflow=hidden;points=[[0,0.5],[1,0.5]];portConstraint=eastwest;rotatable=0;whiteSpace=wrap;html=1;" vertex="1" parent="pnk6eSNMhnhxJrGRFuTv-39">
          <mxGeometry y="60" width="290" height="30" as="geometry" />
        </mxCell>
        <mxCell id="pnk6eSNMhnhxJrGRFuTv-42" value="13 - analyser la porte" style="text;strokeColor=none;fillColor=none;align=left;verticalAlign=middle;spacingLeft=4;spacingRight=4;overflow=hidden;points=[[0,0.5],[1,0.5]];portConstraint=eastwest;rotatable=0;whiteSpace=wrap;html=1;" vertex="1" parent="pnk6eSNMhnhxJrGRFuTv-39">
          <mxGeometry y="90" width="290" height="30" as="geometry" />
        </mxCell>
        <mxCell id="pnk6eSNMhnhxJrGRFuTv-43" value="19 - utiliser la clef" style="text;strokeColor=#b85450;fillColor=#f8cecc;align=left;verticalAlign=middle;spacingLeft=4;spacingRight=4;overflow=hidden;points=[[0,0.5],[1,0.5]];portConstraint=eastwest;rotatable=0;whiteSpace=wrap;html=1;" vertex="1" parent="pnk6eSNMhnhxJrGRFuTv-39">
          <mxGeometry y="120" width="290" height="30" as="geometry" />
        </mxCell>
        <mxCell id="pnk6eSNMhnhxJrGRFuTv-46" value="19 - Actions" style="swimlane;fontStyle=0;childLayout=stackLayout;horizontal=1;startSize=30;horizontalStack=0;resizeParent=1;resizeParentMax=0;resizeLast=0;collapsible=1;marginBottom=0;whiteSpace=wrap;html=1;" vertex="1" parent="pnk6eSNMhnhxJrGRFuTv-1">
          <mxGeometry x="3290" y="-20" width="290" height="210" as="geometry" />
        </mxCell>
        <mxCell id="pnk6eSNMhnhxJrGRFuTv-47" value="A - je m&#39;enferme [Réussite]" style="text;strokeColor=none;fillColor=none;align=left;verticalAlign=middle;spacingLeft=4;spacingRight=4;overflow=hidden;points=[[0,0.5],[1,0.5]];portConstraint=eastwest;rotatable=0;whiteSpace=wrap;html=1;" vertex="1" parent="pnk6eSNMhnhxJrGRFuTv-46">
          <mxGeometry y="30" width="290" height="30" as="geometry" />
        </mxCell>
        <mxCell id="pnk6eSNMhnhxJrGRFuTv-48" value="A - je m&#39;enferme [Echec]" style="text;strokeColor=none;fillColor=none;align=left;verticalAlign=middle;spacingLeft=4;spacingRight=4;overflow=hidden;points=[[0,0.5],[1,0.5]];portConstraint=eastwest;rotatable=0;whiteSpace=wrap;html=1;" vertex="1" parent="pnk6eSNMhnhxJrGRFuTv-46">
          <mxGeometry y="60" width="290" height="30" as="geometry" />
        </mxCell>
        <mxCell id="pnk6eSNMhnhxJrGRFuTv-49" value="B - J&#39;essaye de courir [Réussite]" style="text;strokeColor=none;fillColor=none;align=left;verticalAlign=middle;spacingLeft=4;spacingRight=4;overflow=hidden;points=[[0,0.5],[1,0.5]];portConstraint=eastwest;rotatable=0;whiteSpace=wrap;html=1;" vertex="1" parent="pnk6eSNMhnhxJrGRFuTv-46">
          <mxGeometry y="90" width="290" height="30" as="geometry" />
        </mxCell>
        <mxCell id="pnk6eSNMhnhxJrGRFuTv-50" value="B - J&#39;essaye de courir [Echec]" style="text;strokeColor=none;fillColor=none;align=left;verticalAlign=middle;spacingLeft=4;spacingRight=4;overflow=hidden;points=[[0,0.5],[1,0.5]];portConstraint=eastwest;rotatable=0;whiteSpace=wrap;html=1;" vertex="1" parent="pnk6eSNMhnhxJrGRFuTv-46">
          <mxGeometry y="120" width="290" height="30" as="geometry" />
        </mxCell>
        <mxCell id="pnk6eSNMhnhxJrGRFuTv-51" value="C - J&#39;essaye de lui parler [Réussite]" style="text;strokeColor=none;fillColor=none;align=left;verticalAlign=middle;spacingLeft=4;spacingRight=4;overflow=hidden;points=[[0,0.5],[1,0.5]];portConstraint=eastwest;rotatable=0;whiteSpace=wrap;html=1;" vertex="1" parent="pnk6eSNMhnhxJrGRFuTv-46">
          <mxGeometry y="150" width="290" height="30" as="geometry" />
        </mxCell>
        <mxCell id="pnk6eSNMhnhxJrGRFuTv-52" value="C - J&#39;essaye de lui parler [Echec]" style="text;strokeColor=none;fillColor=none;align=left;verticalAlign=middle;spacingLeft=4;spacingRight=4;overflow=hidden;points=[[0,0.5],[1,0.5]];portConstraint=eastwest;rotatable=0;whiteSpace=wrap;html=1;" vertex="1" parent="pnk6eSNMhnhxJrGRFuTv-46">
          <mxGeometry y="180" width="290" height="30" as="geometry" />
        </mxCell>
        <mxCell id="pnk6eSNMhnhxJrGRFuTv-53" style="edgeStyle=orthogonalEdgeStyle;rounded=0;orthogonalLoop=1;jettySize=auto;html=1;entryX=0;entryY=0.094;entryDx=0;entryDy=0;entryPerimeter=0;" edge="1" parent="pnk6eSNMhnhxJrGRFuTv-1" source="pnk6eSNMhnhxJrGRFuTv-43" target="pnk6eSNMhnhxJrGRFuTv-46">
          <mxGeometry relative="1" as="geometry" />
        </mxCell>
        <mxCell id="pnk6eSNMhnhxJrGRFuTv-54" value="19 - tu cours pour éviter" style="swimlane;fontStyle=0;childLayout=stackLayout;horizontal=1;startSize=30;horizontalStack=0;resizeParent=1;resizeParentMax=0;resizeLast=0;collapsible=1;marginBottom=0;whiteSpace=wrap;html=1;" vertex="1" parent="pnk6eSNMhnhxJrGRFuTv-1">
          <mxGeometry x="3670" y="-20" width="290" height="120" as="geometry" />
        </mxCell>
        <mxCell id="pnk6eSNMhnhxJrGRFuTv-55" value="20 - forcer le passage" style="text;strokeColor=none;fillColor=none;align=left;verticalAlign=middle;spacingLeft=4;spacingRight=4;overflow=hidden;points=[[0,0.5],[1,0.5]];portConstraint=eastwest;rotatable=0;whiteSpace=wrap;html=1;" vertex="1" parent="pnk6eSNMhnhxJrGRFuTv-54">
          <mxGeometry y="30" width="290" height="30" as="geometry" />
        </mxCell>
        <mxCell id="pnk6eSNMhnhxJrGRFuTv-56" value="21 - éviter et rentrer dans la voiture" style="text;strokeColor=none;fillColor=none;align=left;verticalAlign=middle;spacingLeft=4;spacingRight=4;overflow=hidden;points=[[0,0.5],[1,0.5]];portConstraint=eastwest;rotatable=0;whiteSpace=wrap;html=1;" vertex="1" parent="pnk6eSNMhnhxJrGRFuTv-54">
          <mxGeometry y="60" width="290" height="30" as="geometry" />
        </mxCell>
        <mxCell id="pnk6eSNMhnhxJrGRFuTv-57" value="22 - essayer de lui parler" style="text;strokeColor=none;fillColor=none;align=left;verticalAlign=middle;spacingLeft=4;spacingRight=4;overflow=hidden;points=[[0,0.5],[1,0.5]];portConstraint=eastwest;rotatable=0;whiteSpace=wrap;html=1;" vertex="1" parent="pnk6eSNMhnhxJrGRFuTv-54">
          <mxGeometry y="90" width="290" height="30" as="geometry" />
        </mxCell>
        <mxCell id="pnk6eSNMhnhxJrGRFuTv-58" style="edgeStyle=orthogonalEdgeStyle;rounded=0;orthogonalLoop=1;jettySize=auto;html=1;entryX=0;entryY=0.052;entryDx=0;entryDy=0;entryPerimeter=0;" edge="1" parent="pnk6eSNMhnhxJrGRFuTv-1" source="pnk6eSNMhnhxJrGRFuTv-50" target="pnk6eSNMhnhxJrGRFuTv-54">
          <mxGeometry relative="1" as="geometry" />
        </mxCell>
        <mxCell id="pnk6eSNMhnhxJrGRFuTv-59" style="edgeStyle=orthogonalEdgeStyle;rounded=0;orthogonalLoop=1;jettySize=auto;html=1;entryX=-0.014;entryY=0.105;entryDx=0;entryDy=0;entryPerimeter=0;" edge="1" parent="pnk6eSNMhnhxJrGRFuTv-1" source="pnk6eSNMhnhxJrGRFuTv-49" target="pnk6eSNMhnhxJrGRFuTv-54">
          <mxGeometry relative="1" as="geometry" />
        </mxCell>
        <mxCell id="pnk6eSNMhnhxJrGRFuTv-60" value="21 - Actions" style="swimlane;fontStyle=0;childLayout=stackLayout;horizontal=1;startSize=30;horizontalStack=0;resizeParent=1;resizeParentMax=0;resizeLast=0;collapsible=1;marginBottom=0;whiteSpace=wrap;html=1;" vertex="1" parent="pnk6eSNMhnhxJrGRFuTv-1">
          <mxGeometry x="4040" y="-20" width="290" height="210" as="geometry" />
        </mxCell>
        <mxCell id="pnk6eSNMhnhxJrGRFuTv-61" value="A - se jeter par la fenêtre [Réussite]" style="text;strokeColor=none;fillColor=none;align=left;verticalAlign=middle;spacingLeft=4;spacingRight=4;overflow=hidden;points=[[0,0.5],[1,0.5]];portConstraint=eastwest;rotatable=0;whiteSpace=wrap;html=1;" vertex="1" parent="pnk6eSNMhnhxJrGRFuTv-60">
          <mxGeometry y="30" width="290" height="30" as="geometry" />
        </mxCell>
        <mxCell id="pnk6eSNMhnhxJrGRFuTv-62" value="A - se jeter par la fenêtre&amp;nbsp;[Echec]" style="text;strokeColor=none;fillColor=none;align=left;verticalAlign=middle;spacingLeft=4;spacingRight=4;overflow=hidden;points=[[0,0.5],[1,0.5]];portConstraint=eastwest;rotatable=0;whiteSpace=wrap;html=1;" vertex="1" parent="pnk6eSNMhnhxJrGRFuTv-60">
          <mxGeometry y="60" width="290" height="30" as="geometry" />
        </mxCell>
        <mxCell id="pnk6eSNMhnhxJrGRFuTv-63" value="B - casser la vitre [Réussite]" style="text;strokeColor=none;fillColor=none;align=left;verticalAlign=middle;spacingLeft=4;spacingRight=4;overflow=hidden;points=[[0,0.5],[1,0.5]];portConstraint=eastwest;rotatable=0;whiteSpace=wrap;html=1;" vertex="1" parent="pnk6eSNMhnhxJrGRFuTv-60">
          <mxGeometry y="90" width="290" height="30" as="geometry" />
        </mxCell>
        <mxCell id="pnk6eSNMhnhxJrGRFuTv-64" value="B - casser la vitre&amp;nbsp;[Echec]" style="text;strokeColor=none;fillColor=none;align=left;verticalAlign=middle;spacingLeft=4;spacingRight=4;overflow=hidden;points=[[0,0.5],[1,0.5]];portConstraint=eastwest;rotatable=0;whiteSpace=wrap;html=1;" vertex="1" parent="pnk6eSNMhnhxJrGRFuTv-60">
          <mxGeometry y="120" width="290" height="30" as="geometry" />
        </mxCell>
        <mxCell id="pnk6eSNMhnhxJrGRFuTv-65" value="C - espérer [Réussite]" style="text;strokeColor=none;fillColor=none;align=left;verticalAlign=middle;spacingLeft=4;spacingRight=4;overflow=hidden;points=[[0,0.5],[1,0.5]];portConstraint=eastwest;rotatable=0;whiteSpace=wrap;html=1;" vertex="1" parent="pnk6eSNMhnhxJrGRFuTv-60">
          <mxGeometry y="150" width="290" height="30" as="geometry" />
        </mxCell>
        <mxCell id="pnk6eSNMhnhxJrGRFuTv-66" value="C - espérer&amp;nbsp;&amp;nbsp;[Echec]" style="text;strokeColor=none;fillColor=none;align=left;verticalAlign=middle;spacingLeft=4;spacingRight=4;overflow=hidden;points=[[0,0.5],[1,0.5]];portConstraint=eastwest;rotatable=0;whiteSpace=wrap;html=1;" vertex="1" parent="pnk6eSNMhnhxJrGRFuTv-60">
          <mxGeometry y="180" width="290" height="30" as="geometry" />
        </mxCell>
        <mxCell id="pnk6eSNMhnhxJrGRFuTv-67" style="edgeStyle=orthogonalEdgeStyle;rounded=0;orthogonalLoop=1;jettySize=auto;html=1;entryX=0;entryY=0.095;entryDx=0;entryDy=0;entryPerimeter=0;" edge="1" parent="pnk6eSNMhnhxJrGRFuTv-1" source="pnk6eSNMhnhxJrGRFuTv-56" target="pnk6eSNMhnhxJrGRFuTv-60">
          <mxGeometry relative="1" as="geometry" />
        </mxCell>
        <mxCell id="pnk6eSNMhnhxJrGRFuTv-68" value="21 - Tu vois que tu as une ouverture" style="swimlane;fontStyle=0;childLayout=stackLayout;horizontal=1;startSize=30;horizontalStack=0;resizeParent=1;resizeParentMax=0;resizeLast=0;collapsible=1;marginBottom=0;whiteSpace=wrap;html=1;" vertex="1" parent="pnk6eSNMhnhxJrGRFuTv-1">
          <mxGeometry x="4450" y="-20" width="290" height="120" as="geometry" />
        </mxCell>
        <mxCell id="pnk6eSNMhnhxJrGRFuTv-69" value="24 - Essayer de démarrer la voiture" style="text;strokeColor=none;fillColor=none;align=left;verticalAlign=middle;spacingLeft=4;spacingRight=4;overflow=hidden;points=[[0,0.5],[1,0.5]];portConstraint=eastwest;rotatable=0;whiteSpace=wrap;html=1;" vertex="1" parent="pnk6eSNMhnhxJrGRFuTv-68">
          <mxGeometry y="30" width="290" height="30" as="geometry" />
        </mxCell>
        <mxCell id="pnk6eSNMhnhxJrGRFuTv-70" value="25 - Claxonner" style="text;strokeColor=none;fillColor=none;align=left;verticalAlign=middle;spacingLeft=4;spacingRight=4;overflow=hidden;points=[[0,0.5],[1,0.5]];portConstraint=eastwest;rotatable=0;whiteSpace=wrap;html=1;" vertex="1" parent="pnk6eSNMhnhxJrGRFuTv-68">
          <mxGeometry y="60" width="290" height="30" as="geometry" />
        </mxCell>
        <mxCell id="pnk6eSNMhnhxJrGRFuTv-71" value="26 - Ouvrir violemment la porte" style="text;strokeColor=none;fillColor=none;align=left;verticalAlign=middle;spacingLeft=4;spacingRight=4;overflow=hidden;points=[[0,0.5],[1,0.5]];portConstraint=eastwest;rotatable=0;whiteSpace=wrap;html=1;" vertex="1" parent="pnk6eSNMhnhxJrGRFuTv-68">
          <mxGeometry y="90" width="290" height="30" as="geometry" />
        </mxCell>
        <mxCell id="pnk6eSNMhnhxJrGRFuTv-72" style="edgeStyle=orthogonalEdgeStyle;rounded=0;orthogonalLoop=1;jettySize=auto;html=1;entryX=0;entryY=0.038;entryDx=0;entryDy=0;entryPerimeter=0;" edge="1" parent="pnk6eSNMhnhxJrGRFuTv-1" source="pnk6eSNMhnhxJrGRFuTv-61" target="pnk6eSNMhnhxJrGRFuTv-68">
          <mxGeometry relative="1" as="geometry" />
        </mxCell>
        <mxCell id="pnk6eSNMhnhxJrGRFuTv-73" style="edgeStyle=orthogonalEdgeStyle;rounded=0;orthogonalLoop=1;jettySize=auto;html=1;entryX=0.01;entryY=0.081;entryDx=0;entryDy=0;entryPerimeter=0;" edge="1" parent="pnk6eSNMhnhxJrGRFuTv-1" source="pnk6eSNMhnhxJrGRFuTv-62" target="pnk6eSNMhnhxJrGRFuTv-68">
          <mxGeometry relative="1" as="geometry">
            <mxPoint x="4420" y="30" as="targetPoint" />
          </mxGeometry>
        </mxCell>
        <mxCell id="pnk6eSNMhnhxJrGRFuTv-74" value="24 - Actions" style="swimlane;fontStyle=0;childLayout=stackLayout;horizontal=1;startSize=30;horizontalStack=0;resizeParent=1;resizeParentMax=0;resizeLast=0;collapsible=1;marginBottom=0;whiteSpace=wrap;html=1;" vertex="1" parent="pnk6eSNMhnhxJrGRFuTv-1">
          <mxGeometry x="4900" y="-20" width="290" height="120" as="geometry" />
        </mxCell>
        <mxCell id="pnk6eSNMhnhxJrGRFuTv-75" value="24 - Essayer de démarrer la voiture" style="text;strokeColor=none;fillColor=none;align=left;verticalAlign=middle;spacingLeft=4;spacingRight=4;overflow=hidden;points=[[0,0.5],[1,0.5]];portConstraint=eastwest;rotatable=0;whiteSpace=wrap;html=1;" vertex="1" parent="pnk6eSNMhnhxJrGRFuTv-74">
          <mxGeometry y="30" width="290" height="30" as="geometry" />
        </mxCell>
        <mxCell id="pnk6eSNMhnhxJrGRFuTv-76" value="25 - Claxonner" style="text;strokeColor=none;fillColor=none;align=left;verticalAlign=middle;spacingLeft=4;spacingRight=4;overflow=hidden;points=[[0,0.5],[1,0.5]];portConstraint=eastwest;rotatable=0;whiteSpace=wrap;html=1;" vertex="1" parent="pnk6eSNMhnhxJrGRFuTv-74">
          <mxGeometry y="60" width="290" height="30" as="geometry" />
        </mxCell>
        <mxCell id="pnk6eSNMhnhxJrGRFuTv-77" value="26 - Ouvrir violemment la porte" style="text;strokeColor=none;fillColor=none;align=left;verticalAlign=middle;spacingLeft=4;spacingRight=4;overflow=hidden;points=[[0,0.5],[1,0.5]];portConstraint=eastwest;rotatable=0;whiteSpace=wrap;html=1;" vertex="1" parent="pnk6eSNMhnhxJrGRFuTv-74">
          <mxGeometry y="90" width="290" height="30" as="geometry" />
        </mxCell>
        <mxCell id="pnk6eSNMhnhxJrGRFuTv-78" style="edgeStyle=orthogonalEdgeStyle;rounded=0;orthogonalLoop=1;jettySize=auto;html=1;entryX=0;entryY=0.117;entryDx=0;entryDy=0;entryPerimeter=0;" edge="1" parent="pnk6eSNMhnhxJrGRFuTv-1" source="pnk6eSNMhnhxJrGRFuTv-69" target="pnk6eSNMhnhxJrGRFuTv-74">
          <mxGeometry relative="1" as="geometry" />
        </mxCell>
        <mxCell id="pnk6eSNMhnhxJrGRFuTv-79" value="END" style="swimlane;fontStyle=0;childLayout=stackLayout;horizontal=1;startSize=30;horizontalStack=0;resizeParent=1;resizeParentMax=0;resizeLast=0;collapsible=1;marginBottom=0;whiteSpace=wrap;html=1;" vertex="1" parent="pnk6eSNMhnhxJrGRFuTv-1">
          <mxGeometry x="5290" y="-20" width="290" height="60" as="geometry" />
        </mxCell>
        <mxCell id="pnk6eSNMhnhxJrGRFuTv-80" value="RECAP" style="text;strokeColor=none;fillColor=none;align=left;verticalAlign=middle;spacingLeft=4;spacingRight=4;overflow=hidden;points=[[0,0.5],[1,0.5]];portConstraint=eastwest;rotatable=0;whiteSpace=wrap;html=1;" vertex="1" parent="pnk6eSNMhnhxJrGRFuTv-79">
          <mxGeometry y="30" width="290" height="30" as="geometry" />
        </mxCell>
        <mxCell id="pnk6eSNMhnhxJrGRFuTv-81" style="edgeStyle=orthogonalEdgeStyle;rounded=0;orthogonalLoop=1;jettySize=auto;html=1;entryX=0;entryY=0.25;entryDx=0;entryDy=0;" edge="1" parent="pnk6eSNMhnhxJrGRFuTv-1" source="pnk6eSNMhnhxJrGRFuTv-75" target="pnk6eSNMhnhxJrGRFuTv-79">
          <mxGeometry relative="1" as="geometry" />
        </mxCell>
        <mxCell id="pnk6eSNMhnhxJrGRFuTv-101" value="6 - Actions" style="swimlane;fontStyle=0;childLayout=stackLayout;horizontal=1;startSize=30;horizontalStack=0;resizeParent=1;resizeParentMax=0;resizeLast=0;collapsible=1;marginBottom=0;whiteSpace=wrap;html=1;" vertex="1" parent="pnk6eSNMhnhxJrGRFuTv-1">
          <mxGeometry x="1329" y="-220" width="240" height="150" as="geometry" />
        </mxCell>
        <mxCell id="pnk6eSNMhnhxJrGRFuTv-102" value="A - fouille réfléchit [Réussite]" style="text;strokeColor=none;fillColor=none;align=left;verticalAlign=middle;spacingLeft=4;spacingRight=4;overflow=hidden;points=[[0,0.5],[1,0.5]];portConstraint=eastwest;rotatable=0;whiteSpace=wrap;html=1;" vertex="1" parent="pnk6eSNMhnhxJrGRFuTv-101">
          <mxGeometry y="30" width="240" height="30" as="geometry" />
        </mxCell>
        <mxCell id="pnk6eSNMhnhxJrGRFuTv-103" value="A - fouille réfléchit [Echec]" style="text;strokeColor=none;fillColor=none;align=left;verticalAlign=middle;spacingLeft=4;spacingRight=4;overflow=hidden;points=[[0,0.5],[1,0.5]];portConstraint=eastwest;rotatable=0;whiteSpace=wrap;html=1;" vertex="1" parent="pnk6eSNMhnhxJrGRFuTv-101">
          <mxGeometry y="60" width="240" height="30" as="geometry" />
        </mxCell>
        <mxCell id="pnk6eSNMhnhxJrGRFuTv-104" value="B - fouille rapide [Réussite]" style="text;strokeColor=none;fillColor=none;align=left;verticalAlign=middle;spacingLeft=4;spacingRight=4;overflow=hidden;points=[[0,0.5],[1,0.5]];portConstraint=eastwest;rotatable=0;whiteSpace=wrap;html=1;" vertex="1" parent="pnk6eSNMhnhxJrGRFuTv-101">
          <mxGeometry y="90" width="240" height="30" as="geometry" />
        </mxCell>
        <mxCell id="pnk6eSNMhnhxJrGRFuTv-105" value="B - fouille rapide&amp;nbsp;[Echec]" style="text;strokeColor=none;fillColor=none;align=left;verticalAlign=middle;spacingLeft=4;spacingRight=4;overflow=hidden;points=[[0,0.5],[1,0.5]];portConstraint=eastwest;rotatable=0;whiteSpace=wrap;html=1;" vertex="1" parent="pnk6eSNMhnhxJrGRFuTv-101">
          <mxGeometry y="120" width="240" height="30" as="geometry" />
        </mxCell>
        <mxCell id="pnk6eSNMhnhxJrGRFuTv-106" style="edgeStyle=orthogonalEdgeStyle;rounded=0;orthogonalLoop=1;jettySize=auto;html=1;entryX=0.004;entryY=0.081;entryDx=0;entryDy=0;entryPerimeter=0;" edge="1" parent="pnk6eSNMhnhxJrGRFuTv-1" source="pnk6eSNMhnhxJrGRFuTv-13" target="pnk6eSNMhnhxJrGRFuTv-101">
          <mxGeometry relative="1" as="geometry">
            <Array as="points">
              <mxPoint x="1270" y="65" />
              <mxPoint x="1270" y="-203" />
              <mxPoint x="1300" y="-203" />
              <mxPoint x="1300" y="-208" />
            </Array>
          </mxGeometry>
        </mxCell>
        <mxCell id="pnk6eSNMhnhxJrGRFuTv-107" value="6 - Tu prends tout ton temps" style="swimlane;fontStyle=0;childLayout=stackLayout;horizontal=1;startSize=30;horizontalStack=0;resizeParent=1;resizeParentMax=0;resizeLast=0;collapsible=1;marginBottom=0;whiteSpace=wrap;html=1;" vertex="1" parent="pnk6eSNMhnhxJrGRFuTv-1">
          <mxGeometry x="1700" y="-250" width="240" height="150" as="geometry" />
        </mxCell>
        <mxCell id="pnk6eSNMhnhxJrGRFuTv-110" value="4 - tu ne fais plus de bruit et tu écoutes" style="text;strokeColor=none;fillColor=none;align=left;verticalAlign=middle;spacingLeft=4;spacingRight=4;overflow=hidden;points=[[0,0.5],[1,0.5]];portConstraint=eastwest;rotatable=0;whiteSpace=wrap;html=1;" vertex="1" parent="pnk6eSNMhnhxJrGRFuTv-107">
          <mxGeometry y="30" width="240" height="30" as="geometry" />
        </mxCell>
        <mxCell id="iAANMyzKoAnhCtGlSeD2-0" value="9 - atteindre le bureau" style="text;strokeColor=none;fillColor=none;align=left;verticalAlign=middle;spacingLeft=4;spacingRight=4;overflow=hidden;points=[[0,0.5],[1,0.5]];portConstraint=eastwest;rotatable=0;whiteSpace=wrap;html=1;" vertex="1" parent="pnk6eSNMhnhxJrGRFuTv-107">
          <mxGeometry y="60" width="240" height="30" as="geometry" />
        </mxCell>
        <mxCell id="iAANMyzKoAnhCtGlSeD2-1" value="15 - atteindre la porte" style="text;strokeColor=none;fillColor=none;align=left;verticalAlign=middle;spacingLeft=4;spacingRight=4;overflow=hidden;points=[[0,0.5],[1,0.5]];portConstraint=eastwest;rotatable=0;whiteSpace=wrap;html=1;" vertex="1" parent="pnk6eSNMhnhxJrGRFuTv-107">
          <mxGeometry y="90" width="240" height="30" as="geometry" />
        </mxCell>
        <mxCell id="iAANMyzKoAnhCtGlSeD2-50" value="11 - atteindre la télé" style="text;strokeColor=none;fillColor=none;align=left;verticalAlign=middle;spacingLeft=4;spacingRight=4;overflow=hidden;points=[[0,0.5],[1,0.5]];portConstraint=eastwest;rotatable=0;whiteSpace=wrap;html=1;" vertex="1" parent="pnk6eSNMhnhxJrGRFuTv-107">
          <mxGeometry y="120" width="240" height="30" as="geometry" />
        </mxCell>
        <mxCell id="pnk6eSNMhnhxJrGRFuTv-116" style="edgeStyle=orthogonalEdgeStyle;rounded=0;orthogonalLoop=1;jettySize=auto;html=1;entryX=-0.008;entryY=0.12;entryDx=0;entryDy=0;entryPerimeter=0;exitX=1;exitY=0.147;exitDx=0;exitDy=0;exitPerimeter=0;" edge="1" parent="pnk6eSNMhnhxJrGRFuTv-1" source="pnk6eSNMhnhxJrGRFuTv-101" target="pnk6eSNMhnhxJrGRFuTv-107">
          <mxGeometry relative="1" as="geometry" />
        </mxCell>
        <mxCell id="pnk6eSNMhnhxJrGRFuTv-123" value="4 - Actions" style="swimlane;fontStyle=0;childLayout=stackLayout;horizontal=1;startSize=30;horizontalStack=0;resizeParent=1;resizeParentMax=0;resizeLast=0;collapsible=1;marginBottom=0;whiteSpace=wrap;html=1;" vertex="1" parent="pnk6eSNMhnhxJrGRFuTv-1">
          <mxGeometry x="2030" y="-260" width="240" height="150" as="geometry" />
        </mxCell>
        <mxCell id="pnk6eSNMhnhxJrGRFuTv-124" value="A - Ecouter attentivement [Réussite]" style="text;strokeColor=none;fillColor=none;align=left;verticalAlign=middle;spacingLeft=4;spacingRight=4;overflow=hidden;points=[[0,0.5],[1,0.5]];portConstraint=eastwest;rotatable=0;whiteSpace=wrap;html=1;" vertex="1" parent="pnk6eSNMhnhxJrGRFuTv-123">
          <mxGeometry y="30" width="240" height="30" as="geometry" />
        </mxCell>
        <mxCell id="pnk6eSNMhnhxJrGRFuTv-125" value="A - Ecouter attentivement&amp;nbsp;&amp;nbsp; [Echec]" style="text;strokeColor=none;fillColor=none;align=left;verticalAlign=middle;spacingLeft=4;spacingRight=4;overflow=hidden;points=[[0,0.5],[1,0.5]];portConstraint=eastwest;rotatable=0;whiteSpace=wrap;html=1;" vertex="1" parent="pnk6eSNMhnhxJrGRFuTv-123">
          <mxGeometry y="60" width="240" height="30" as="geometry" />
        </mxCell>
        <mxCell id="pnk6eSNMhnhxJrGRFuTv-126" value="B - Ecouter rapidement [Réussite]" style="text;strokeColor=none;fillColor=none;align=left;verticalAlign=middle;spacingLeft=4;spacingRight=4;overflow=hidden;points=[[0,0.5],[1,0.5]];portConstraint=eastwest;rotatable=0;whiteSpace=wrap;html=1;" vertex="1" parent="pnk6eSNMhnhxJrGRFuTv-123">
          <mxGeometry y="90" width="240" height="30" as="geometry" />
        </mxCell>
        <mxCell id="pnk6eSNMhnhxJrGRFuTv-127" value="B - Ecouter rapidement&amp;nbsp;&amp;nbsp;&amp;nbsp;[Echec]" style="text;strokeColor=none;fillColor=none;align=left;verticalAlign=middle;spacingLeft=4;spacingRight=4;overflow=hidden;points=[[0,0.5],[1,0.5]];portConstraint=eastwest;rotatable=0;whiteSpace=wrap;html=1;" vertex="1" parent="pnk6eSNMhnhxJrGRFuTv-123">
          <mxGeometry y="120" width="240" height="30" as="geometry" />
        </mxCell>
        <mxCell id="pnk6eSNMhnhxJrGRFuTv-129" style="edgeStyle=orthogonalEdgeStyle;rounded=0;orthogonalLoop=1;jettySize=auto;html=1;entryX=0.004;entryY=0.147;entryDx=0;entryDy=0;entryPerimeter=0;exitX=1;exitY=0.5;exitDx=0;exitDy=0;" edge="1" parent="pnk6eSNMhnhxJrGRFuTv-1" source="pnk6eSNMhnhxJrGRFuTv-110" target="pnk6eSNMhnhxJrGRFuTv-123">
          <mxGeometry relative="1" as="geometry">
            <mxPoint x="1940" y="-175" as="sourcePoint" />
            <Array as="points">
              <mxPoint x="1940" y="-210" />
              <mxPoint x="1990" y="-210" />
              <mxPoint x="1990" y="-238" />
            </Array>
          </mxGeometry>
        </mxCell>
        <mxCell id="iAANMyzKoAnhCtGlSeD2-2" style="edgeStyle=orthogonalEdgeStyle;rounded=0;orthogonalLoop=1;jettySize=auto;html=1;entryX=0.002;entryY=0.124;entryDx=0;entryDy=0;entryPerimeter=0;" edge="1" parent="pnk6eSNMhnhxJrGRFuTv-1" source="pnk6eSNMhnhxJrGRFuTv-20" target="iAANMyzKoAnhCtGlSeD2-66">
          <mxGeometry relative="1" as="geometry" />
        </mxCell>
        <mxCell id="iAANMyzKoAnhCtGlSeD2-8" value="3 - Actions" style="swimlane;fontStyle=0;childLayout=stackLayout;horizontal=1;startSize=30;horizontalStack=0;resizeParent=1;resizeParentMax=0;resizeLast=0;collapsible=1;marginBottom=0;whiteSpace=wrap;html=1;" vertex="1" parent="pnk6eSNMhnhxJrGRFuTv-1">
          <mxGeometry x="170" y="414" width="240" height="150" as="geometry" />
        </mxCell>
        <mxCell id="iAANMyzKoAnhCtGlSeD2-9" value="A - tu te lèves brutalement [Réussite]" style="text;strokeColor=none;fillColor=none;align=left;verticalAlign=middle;spacingLeft=4;spacingRight=4;overflow=hidden;points=[[0,0.5],[1,0.5]];portConstraint=eastwest;rotatable=0;whiteSpace=wrap;html=1;" vertex="1" parent="iAANMyzKoAnhCtGlSeD2-8">
          <mxGeometry y="30" width="240" height="30" as="geometry" />
        </mxCell>
        <mxCell id="iAANMyzKoAnhCtGlSeD2-10" value="A - tu te lèves brutalement&amp;nbsp;[Echec]" style="text;strokeColor=none;fillColor=none;align=left;verticalAlign=middle;spacingLeft=4;spacingRight=4;overflow=hidden;points=[[0,0.5],[1,0.5]];portConstraint=eastwest;rotatable=0;whiteSpace=wrap;html=1;" vertex="1" parent="iAANMyzKoAnhCtGlSeD2-8">
          <mxGeometry y="60" width="240" height="30" as="geometry" />
        </mxCell>
        <mxCell id="iAANMyzKoAnhCtGlSeD2-11" value="B - tu prends ton temps [Réussite]" style="text;strokeColor=none;fillColor=none;align=left;verticalAlign=middle;spacingLeft=4;spacingRight=4;overflow=hidden;points=[[0,0.5],[1,0.5]];portConstraint=eastwest;rotatable=0;whiteSpace=wrap;html=1;" vertex="1" parent="iAANMyzKoAnhCtGlSeD2-8">
          <mxGeometry y="90" width="240" height="30" as="geometry" />
        </mxCell>
        <mxCell id="iAANMyzKoAnhCtGlSeD2-12" value="B - tu prends ton temps&amp;nbsp;[Echec]" style="text;strokeColor=none;fillColor=none;align=left;verticalAlign=middle;spacingLeft=4;spacingRight=4;overflow=hidden;points=[[0,0.5],[1,0.5]];portConstraint=eastwest;rotatable=0;whiteSpace=wrap;html=1;" vertex="1" parent="iAANMyzKoAnhCtGlSeD2-8">
          <mxGeometry y="120" width="240" height="30" as="geometry" />
        </mxCell>
        <mxCell id="iAANMyzKoAnhCtGlSeD2-14" value="3 - tu te rassois de ta volonté ou non" style="swimlane;fontStyle=0;childLayout=stackLayout;horizontal=1;startSize=30;horizontalStack=0;resizeParent=1;resizeParentMax=0;resizeLast=0;collapsible=1;marginBottom=0;whiteSpace=wrap;html=1;" vertex="1" parent="pnk6eSNMhnhxJrGRFuTv-1">
          <mxGeometry x="520" y="500" width="290" height="90" as="geometry" />
        </mxCell>
        <mxCell id="iAANMyzKoAnhCtGlSeD2-16" value="1 - autour de toi" style="text;strokeColor=none;fillColor=none;align=left;verticalAlign=middle;spacingLeft=4;spacingRight=4;overflow=hidden;points=[[0,0.5],[1,0.5]];portConstraint=eastwest;rotatable=0;whiteSpace=wrap;html=1;" vertex="1" parent="iAANMyzKoAnhCtGlSeD2-14">
          <mxGeometry y="30" width="290" height="30" as="geometry" />
        </mxCell>
        <mxCell id="iAANMyzKoAnhCtGlSeD2-27" value="2 - Tes poches" style="text;strokeColor=none;fillColor=none;align=left;verticalAlign=middle;spacingLeft=4;spacingRight=4;overflow=hidden;points=[[0,0.5],[1,0.5]];portConstraint=eastwest;rotatable=0;whiteSpace=wrap;html=1;" vertex="1" parent="iAANMyzKoAnhCtGlSeD2-14">
          <mxGeometry y="60" width="290" height="30" as="geometry" />
        </mxCell>
        <mxCell id="iAANMyzKoAnhCtGlSeD2-18" style="edgeStyle=orthogonalEdgeStyle;rounded=0;orthogonalLoop=1;jettySize=auto;html=1;entryX=-0.014;entryY=0.107;entryDx=0;entryDy=0;entryPerimeter=0;exitX=1.004;exitY=0.127;exitDx=0;exitDy=0;exitPerimeter=0;" edge="1" parent="pnk6eSNMhnhxJrGRFuTv-1" source="iAANMyzKoAnhCtGlSeD2-8" target="iAANMyzKoAnhCtGlSeD2-14">
          <mxGeometry relative="1" as="geometry" />
        </mxCell>
        <mxCell id="iAANMyzKoAnhCtGlSeD2-26" style="edgeStyle=orthogonalEdgeStyle;rounded=0;orthogonalLoop=1;jettySize=auto;html=1;entryX=0;entryY=0.127;entryDx=0;entryDy=0;entryPerimeter=0;" edge="1" parent="pnk6eSNMhnhxJrGRFuTv-1" source="pnk6eSNMhnhxJrGRFuTv-5" target="iAANMyzKoAnhCtGlSeD2-8">
          <mxGeometry relative="1" as="geometry" />
        </mxCell>
        <mxCell id="iAANMyzKoAnhCtGlSeD2-28" style="edgeStyle=orthogonalEdgeStyle;rounded=0;orthogonalLoop=1;jettySize=auto;html=1;entryX=-0.004;entryY=0.153;entryDx=0;entryDy=0;entryPerimeter=0;exitX=1;exitY=0.5;exitDx=0;exitDy=0;" edge="1" parent="pnk6eSNMhnhxJrGRFuTv-1" source="iAANMyzKoAnhCtGlSeD2-16" target="pnk6eSNMhnhxJrGRFuTv-6">
          <mxGeometry relative="1" as="geometry">
            <Array as="points">
              <mxPoint x="830" y="545" />
              <mxPoint x="830" y="460" />
              <mxPoint x="460" y="460" />
              <mxPoint x="460" y="103" />
            </Array>
          </mxGeometry>
        </mxCell>
        <mxCell id="iAANMyzKoAnhCtGlSeD2-29" value="2 - Actions" style="swimlane;fontStyle=0;childLayout=stackLayout;horizontal=1;startSize=30;horizontalStack=0;resizeParent=1;resizeParentMax=0;resizeLast=0;collapsible=1;marginBottom=0;whiteSpace=wrap;html=1;" vertex="1" parent="pnk6eSNMhnhxJrGRFuTv-1">
          <mxGeometry x="109" y="-180" width="240" height="150" as="geometry" />
        </mxCell>
        <mxCell id="iAANMyzKoAnhCtGlSeD2-30" value="A - fouille réfléchit [Réussite]" style="text;strokeColor=none;fillColor=none;align=left;verticalAlign=middle;spacingLeft=4;spacingRight=4;overflow=hidden;points=[[0,0.5],[1,0.5]];portConstraint=eastwest;rotatable=0;whiteSpace=wrap;html=1;" vertex="1" parent="iAANMyzKoAnhCtGlSeD2-29">
          <mxGeometry y="30" width="240" height="30" as="geometry" />
        </mxCell>
        <mxCell id="iAANMyzKoAnhCtGlSeD2-31" value="A - fouille réfléchit [Echec]" style="text;strokeColor=none;fillColor=none;align=left;verticalAlign=middle;spacingLeft=4;spacingRight=4;overflow=hidden;points=[[0,0.5],[1,0.5]];portConstraint=eastwest;rotatable=0;whiteSpace=wrap;html=1;" vertex="1" parent="iAANMyzKoAnhCtGlSeD2-29">
          <mxGeometry y="60" width="240" height="30" as="geometry" />
        </mxCell>
        <mxCell id="iAANMyzKoAnhCtGlSeD2-32" value="B - fouille rapide [Réussite]" style="text;strokeColor=none;fillColor=none;align=left;verticalAlign=middle;spacingLeft=4;spacingRight=4;overflow=hidden;points=[[0,0.5],[1,0.5]];portConstraint=eastwest;rotatable=0;whiteSpace=wrap;html=1;" vertex="1" parent="iAANMyzKoAnhCtGlSeD2-29">
          <mxGeometry y="90" width="240" height="30" as="geometry" />
        </mxCell>
        <mxCell id="iAANMyzKoAnhCtGlSeD2-33" value="B - fouille rapide&amp;nbsp;[Echec]" style="text;strokeColor=none;fillColor=none;align=left;verticalAlign=middle;spacingLeft=4;spacingRight=4;overflow=hidden;points=[[0,0.5],[1,0.5]];portConstraint=eastwest;rotatable=0;whiteSpace=wrap;html=1;" vertex="1" parent="iAANMyzKoAnhCtGlSeD2-29">
          <mxGeometry y="120" width="240" height="30" as="geometry" />
        </mxCell>
        <mxCell id="iAANMyzKoAnhCtGlSeD2-34" value="2 - Tu prends tout ton temps, ton portable n&#39;a plus de batterie" style="swimlane;fontStyle=0;childLayout=stackLayout;horizontal=1;startSize=30;horizontalStack=0;resizeParent=1;resizeParentMax=0;resizeLast=0;collapsible=1;marginBottom=0;whiteSpace=wrap;html=1;" vertex="1" parent="pnk6eSNMhnhxJrGRFuTv-1">
          <mxGeometry x="480" y="-200" width="320" height="90" as="geometry" />
        </mxCell>
        <mxCell id="iAANMyzKoAnhCtGlSeD2-35" value="3 - tu te lèves" style="text;strokeColor=none;fillColor=none;align=left;verticalAlign=middle;spacingLeft=4;spacingRight=4;overflow=hidden;points=[[0,0.5],[1,0.5]];portConstraint=eastwest;rotatable=0;whiteSpace=wrap;html=1;" vertex="1" parent="iAANMyzKoAnhCtGlSeD2-34">
          <mxGeometry y="30" width="320" height="30" as="geometry" />
        </mxCell>
        <mxCell id="iAANMyzKoAnhCtGlSeD2-37" value="1 - autour de toi" style="text;strokeColor=none;fillColor=none;align=left;verticalAlign=middle;spacingLeft=4;spacingRight=4;overflow=hidden;points=[[0,0.5],[1,0.5]];portConstraint=eastwest;rotatable=0;whiteSpace=wrap;html=1;" vertex="1" parent="iAANMyzKoAnhCtGlSeD2-34">
          <mxGeometry y="60" width="320" height="30" as="geometry" />
        </mxCell>
        <mxCell id="iAANMyzKoAnhCtGlSeD2-39" style="edgeStyle=orthogonalEdgeStyle;rounded=0;orthogonalLoop=1;jettySize=auto;html=1;entryX=-0.008;entryY=0.12;entryDx=0;entryDy=0;entryPerimeter=0;exitX=1;exitY=0.147;exitDx=0;exitDy=0;exitPerimeter=0;" edge="1" parent="pnk6eSNMhnhxJrGRFuTv-1" source="iAANMyzKoAnhCtGlSeD2-29" target="iAANMyzKoAnhCtGlSeD2-34">
          <mxGeometry relative="1" as="geometry">
            <Array as="points">
              <mxPoint x="349" y="-200" />
              <mxPoint x="415" y="-200" />
              <mxPoint x="415" y="-182" />
            </Array>
          </mxGeometry>
        </mxCell>
        <mxCell id="iAANMyzKoAnhCtGlSeD2-40" style="edgeStyle=orthogonalEdgeStyle;rounded=0;orthogonalLoop=1;jettySize=auto;html=1;entryX=0.004;entryY=0.133;entryDx=0;entryDy=0;entryPerimeter=0;" edge="1" parent="pnk6eSNMhnhxJrGRFuTv-1" source="pnk6eSNMhnhxJrGRFuTv-4" target="iAANMyzKoAnhCtGlSeD2-29">
          <mxGeometry relative="1" as="geometry" />
        </mxCell>
        <mxCell id="iAANMyzKoAnhCtGlSeD2-41" style="edgeStyle=orthogonalEdgeStyle;rounded=0;orthogonalLoop=1;jettySize=auto;html=1;entryX=0;entryY=0.06;entryDx=0;entryDy=0;entryPerimeter=0;" edge="1" parent="pnk6eSNMhnhxJrGRFuTv-1" source="iAANMyzKoAnhCtGlSeD2-35" target="iAANMyzKoAnhCtGlSeD2-8">
          <mxGeometry relative="1" as="geometry">
            <Array as="points">
              <mxPoint x="380" y="-165" />
              <mxPoint x="380" y="360" />
              <mxPoint x="140" y="360" />
              <mxPoint x="140" y="509" />
              <mxPoint x="170" y="509" />
            </Array>
          </mxGeometry>
        </mxCell>
        <mxCell id="iAANMyzKoAnhCtGlSeD2-42" style="edgeStyle=orthogonalEdgeStyle;rounded=0;orthogonalLoop=1;jettySize=auto;html=1;entryX=0;entryY=0.073;entryDx=0;entryDy=0;entryPerimeter=0;" edge="1" parent="pnk6eSNMhnhxJrGRFuTv-1" source="iAANMyzKoAnhCtGlSeD2-37" target="pnk6eSNMhnhxJrGRFuTv-6">
          <mxGeometry relative="1" as="geometry" />
        </mxCell>
        <mxCell id="iAANMyzKoAnhCtGlSeD2-43" style="edgeStyle=orthogonalEdgeStyle;rounded=0;orthogonalLoop=1;jettySize=auto;html=1;entryX=-0.004;entryY=0.087;entryDx=0;entryDy=0;entryPerimeter=0;" edge="1" parent="pnk6eSNMhnhxJrGRFuTv-1" source="iAANMyzKoAnhCtGlSeD2-27" target="iAANMyzKoAnhCtGlSeD2-29">
          <mxGeometry relative="1" as="geometry">
            <Array as="points">
              <mxPoint x="-60" y="575" />
              <mxPoint x="-60" y="-167" />
            </Array>
          </mxGeometry>
        </mxCell>
        <mxCell id="iAANMyzKoAnhCtGlSeD2-44" style="edgeStyle=orthogonalEdgeStyle;rounded=0;orthogonalLoop=1;jettySize=auto;html=1;entryX=-0.003;entryY=0.133;entryDx=0;entryDy=0;entryPerimeter=0;exitX=1;exitY=0.107;exitDx=0;exitDy=0;exitPerimeter=0;" edge="1" parent="pnk6eSNMhnhxJrGRFuTv-1" source="pnk6eSNMhnhxJrGRFuTv-6" target="pnk6eSNMhnhxJrGRFuTv-12">
          <mxGeometry relative="1" as="geometry" />
        </mxCell>
        <mxCell id="iAANMyzKoAnhCtGlSeD2-45" value="Vérifier si l&#39;action a déjà été réalisé" style="rhombus;whiteSpace=wrap;html=1;fillColor=#f8cecc;strokeColor=#b85450;" vertex="1" parent="pnk6eSNMhnhxJrGRFuTv-1">
          <mxGeometry x="645" y="255" width="185" height="165" as="geometry" />
        </mxCell>
        <mxCell id="iAANMyzKoAnhCtGlSeD2-46" value="4 - Tu écoute et tu entends au loin ..." style="swimlane;fontStyle=0;childLayout=stackLayout;horizontal=1;startSize=30;horizontalStack=0;resizeParent=1;resizeParentMax=0;resizeLast=0;collapsible=1;marginBottom=0;whiteSpace=wrap;html=1;" vertex="1" parent="pnk6eSNMhnhxJrGRFuTv-1">
          <mxGeometry x="2350" y="-250" width="240" height="120" as="geometry" />
        </mxCell>
        <mxCell id="iAANMyzKoAnhCtGlSeD2-48" value="9 - atteindre le bureau" style="text;strokeColor=none;fillColor=none;align=left;verticalAlign=middle;spacingLeft=4;spacingRight=4;overflow=hidden;points=[[0,0.5],[1,0.5]];portConstraint=eastwest;rotatable=0;whiteSpace=wrap;html=1;" vertex="1" parent="iAANMyzKoAnhCtGlSeD2-46">
          <mxGeometry y="30" width="240" height="30" as="geometry" />
        </mxCell>
        <mxCell id="iAANMyzKoAnhCtGlSeD2-49" value="15 - atteindre la porte" style="text;strokeColor=none;fillColor=none;align=left;verticalAlign=middle;spacingLeft=4;spacingRight=4;overflow=hidden;points=[[0,0.5],[1,0.5]];portConstraint=eastwest;rotatable=0;whiteSpace=wrap;html=1;" vertex="1" parent="iAANMyzKoAnhCtGlSeD2-46">
          <mxGeometry y="60" width="240" height="30" as="geometry" />
        </mxCell>
        <mxCell id="iAANMyzKoAnhCtGlSeD2-51" value="11 - atteindre la télé" style="text;strokeColor=none;fillColor=none;align=left;verticalAlign=middle;spacingLeft=4;spacingRight=4;overflow=hidden;points=[[0,0.5],[1,0.5]];portConstraint=eastwest;rotatable=0;whiteSpace=wrap;html=1;" vertex="1" parent="iAANMyzKoAnhCtGlSeD2-46">
          <mxGeometry y="90" width="240" height="30" as="geometry" />
        </mxCell>
        <mxCell id="iAANMyzKoAnhCtGlSeD2-52" style="edgeStyle=orthogonalEdgeStyle;rounded=0;orthogonalLoop=1;jettySize=auto;html=1;entryX=0;entryY=0.087;entryDx=0;entryDy=0;entryPerimeter=0;exitX=1.013;exitY=0.1;exitDx=0;exitDy=0;exitPerimeter=0;" edge="1" parent="pnk6eSNMhnhxJrGRFuTv-1" source="pnk6eSNMhnhxJrGRFuTv-123" target="iAANMyzKoAnhCtGlSeD2-46">
          <mxGeometry relative="1" as="geometry" />
        </mxCell>
        <mxCell id="iAANMyzKoAnhCtGlSeD2-53" style="edgeStyle=orthogonalEdgeStyle;rounded=0;orthogonalLoop=1;jettySize=auto;html=1;entryX=0.006;entryY=0.108;entryDx=0;entryDy=0;entryPerimeter=0;" edge="1" parent="pnk6eSNMhnhxJrGRFuTv-1" source="iAANMyzKoAnhCtGlSeD2-48" target="iAANMyzKoAnhCtGlSeD2-66">
          <mxGeometry relative="1" as="geometry">
            <Array as="points">
              <mxPoint x="2320" y="-205" />
              <mxPoint x="2320" y="-60" />
              <mxPoint x="1620" y="-60" />
              <mxPoint x="1620" y="39" />
              <mxPoint x="1310" y="39" />
              <mxPoint x="1310" y="196" />
            </Array>
          </mxGeometry>
        </mxCell>
        <mxCell id="iAANMyzKoAnhCtGlSeD2-54" value="vérification si clef ou non dans l&#39;inventaire" style="rhombus;whiteSpace=wrap;html=1;fillColor=#f8cecc;strokeColor=#b85450;" vertex="1" parent="pnk6eSNMhnhxJrGRFuTv-1">
          <mxGeometry x="2710" y="180" width="185" height="165" as="geometry" />
        </mxCell>
        <mxCell id="iAANMyzKoAnhCtGlSeD2-55" style="edgeStyle=orthogonalEdgeStyle;rounded=0;orthogonalLoop=1;jettySize=auto;html=1;entryX=0;entryY=0.048;entryDx=0;entryDy=0;entryPerimeter=0;" edge="1" parent="pnk6eSNMhnhxJrGRFuTv-1" source="iAANMyzKoAnhCtGlSeD2-49" target="iAANMyzKoAnhCtGlSeD2-57">
          <mxGeometry relative="1" as="geometry">
            <Array as="points">
              <mxPoint x="2610" y="-175" />
              <mxPoint x="2610" y="-30" />
              <mxPoint x="2270" y="-30" />
            </Array>
          </mxGeometry>
        </mxCell>
        <mxCell id="iAANMyzKoAnhCtGlSeD2-56" style="edgeStyle=orthogonalEdgeStyle;rounded=0;orthogonalLoop=1;jettySize=auto;html=1;entryX=-0.006;entryY=0.083;entryDx=0;entryDy=0;entryPerimeter=0;" edge="1" parent="pnk6eSNMhnhxJrGRFuTv-1" source="pnk6eSNMhnhxJrGRFuTv-35" target="iAANMyzKoAnhCtGlSeD2-57">
          <mxGeometry relative="1" as="geometry" />
        </mxCell>
        <mxCell id="iAANMyzKoAnhCtGlSeD2-57" value="15 - Actions" style="swimlane;fontStyle=0;childLayout=stackLayout;horizontal=1;startSize=30;horizontalStack=0;resizeParent=1;resizeParentMax=0;resizeLast=0;collapsible=1;marginBottom=0;whiteSpace=wrap;html=1;" vertex="1" parent="pnk6eSNMhnhxJrGRFuTv-1">
          <mxGeometry x="2450" y="30" width="290" height="150" as="geometry" />
        </mxCell>
        <mxCell id="iAANMyzKoAnhCtGlSeD2-58" value="A - je cours vers la porte [Réussite]" style="text;strokeColor=none;fillColor=none;align=left;verticalAlign=middle;spacingLeft=4;spacingRight=4;overflow=hidden;points=[[0,0.5],[1,0.5]];portConstraint=eastwest;rotatable=0;whiteSpace=wrap;html=1;" vertex="1" parent="iAANMyzKoAnhCtGlSeD2-57">
          <mxGeometry y="30" width="290" height="30" as="geometry" />
        </mxCell>
        <mxCell id="iAANMyzKoAnhCtGlSeD2-59" value="A - je cours vers la porte&amp;nbsp;[Echec]" style="text;strokeColor=none;fillColor=none;align=left;verticalAlign=middle;spacingLeft=4;spacingRight=4;overflow=hidden;points=[[0,0.5],[1,0.5]];portConstraint=eastwest;rotatable=0;whiteSpace=wrap;html=1;" vertex="1" parent="iAANMyzKoAnhCtGlSeD2-57">
          <mxGeometry y="60" width="290" height="30" as="geometry" />
        </mxCell>
        <mxCell id="iAANMyzKoAnhCtGlSeD2-60" value="B - j&#39;y vais sans faire de bruit [Réussite]" style="text;strokeColor=none;fillColor=none;align=left;verticalAlign=middle;spacingLeft=4;spacingRight=4;overflow=hidden;points=[[0,0.5],[1,0.5]];portConstraint=eastwest;rotatable=0;whiteSpace=wrap;html=1;" vertex="1" parent="iAANMyzKoAnhCtGlSeD2-57">
          <mxGeometry y="90" width="290" height="30" as="geometry" />
        </mxCell>
        <mxCell id="iAANMyzKoAnhCtGlSeD2-61" value="B -&amp;nbsp;&amp;nbsp;j&#39;y vais sans faire de bruit&amp;nbsp;&amp;nbsp;[Echec]" style="text;strokeColor=none;fillColor=none;align=left;verticalAlign=middle;spacingLeft=4;spacingRight=4;overflow=hidden;points=[[0,0.5],[1,0.5]];portConstraint=eastwest;rotatable=0;whiteSpace=wrap;html=1;" vertex="1" parent="iAANMyzKoAnhCtGlSeD2-57">
          <mxGeometry y="120" width="290" height="30" as="geometry" />
        </mxCell>
        <mxCell id="iAANMyzKoAnhCtGlSeD2-64" style="edgeStyle=orthogonalEdgeStyle;rounded=0;orthogonalLoop=1;jettySize=auto;html=1;entryX=0.012;entryY=0.12;entryDx=0;entryDy=0;entryPerimeter=0;" edge="1" parent="pnk6eSNMhnhxJrGRFuTv-1" source="iAANMyzKoAnhCtGlSeD2-57" target="pnk6eSNMhnhxJrGRFuTv-39">
          <mxGeometry relative="1" as="geometry" />
        </mxCell>
        <mxCell id="iAANMyzKoAnhCtGlSeD2-66" value="9 - Actions" style="swimlane;fontStyle=0;childLayout=stackLayout;horizontal=1;startSize=30;horizontalStack=0;resizeParent=1;resizeParentMax=0;resizeLast=0;collapsible=1;marginBottom=0;whiteSpace=wrap;html=1;" vertex="1" parent="pnk6eSNMhnhxJrGRFuTv-1">
          <mxGeometry x="1329" y="180" width="290" height="150" as="geometry" />
        </mxCell>
        <mxCell id="iAANMyzKoAnhCtGlSeD2-67" value="A - je cours vers le bureau [Réussite]" style="text;strokeColor=none;fillColor=none;align=left;verticalAlign=middle;spacingLeft=4;spacingRight=4;overflow=hidden;points=[[0,0.5],[1,0.5]];portConstraint=eastwest;rotatable=0;whiteSpace=wrap;html=1;" vertex="1" parent="iAANMyzKoAnhCtGlSeD2-66">
          <mxGeometry y="30" width="290" height="30" as="geometry" />
        </mxCell>
        <mxCell id="iAANMyzKoAnhCtGlSeD2-68" value="A - je cours vers le bureau[Echec]" style="text;strokeColor=none;fillColor=none;align=left;verticalAlign=middle;spacingLeft=4;spacingRight=4;overflow=hidden;points=[[0,0.5],[1,0.5]];portConstraint=eastwest;rotatable=0;whiteSpace=wrap;html=1;" vertex="1" parent="iAANMyzKoAnhCtGlSeD2-66">
          <mxGeometry y="60" width="290" height="30" as="geometry" />
        </mxCell>
        <mxCell id="iAANMyzKoAnhCtGlSeD2-69" value="B - j&#39;y vais sans faire de bruit [Réussite]" style="text;strokeColor=none;fillColor=none;align=left;verticalAlign=middle;spacingLeft=4;spacingRight=4;overflow=hidden;points=[[0,0.5],[1,0.5]];portConstraint=eastwest;rotatable=0;whiteSpace=wrap;html=1;" vertex="1" parent="iAANMyzKoAnhCtGlSeD2-66">
          <mxGeometry y="90" width="290" height="30" as="geometry" />
        </mxCell>
        <mxCell id="iAANMyzKoAnhCtGlSeD2-70" value="B -&amp;nbsp;&amp;nbsp;j&#39;y vais sans faire de bruit&amp;nbsp;&amp;nbsp;[Echec]" style="text;strokeColor=none;fillColor=none;align=left;verticalAlign=middle;spacingLeft=4;spacingRight=4;overflow=hidden;points=[[0,0.5],[1,0.5]];portConstraint=eastwest;rotatable=0;whiteSpace=wrap;html=1;" vertex="1" parent="iAANMyzKoAnhCtGlSeD2-66">
          <mxGeometry y="120" width="290" height="30" as="geometry" />
        </mxCell>
        <mxCell id="iAANMyzKoAnhCtGlSeD2-71" value="9 - tu arrives devant le bureau, il y a ..." style="swimlane;fontStyle=0;childLayout=stackLayout;horizontal=1;startSize=30;horizontalStack=0;resizeParent=1;resizeParentMax=0;resizeLast=0;collapsible=1;marginBottom=0;whiteSpace=wrap;html=1;" vertex="1" parent="pnk6eSNMhnhxJrGRFuTv-1">
          <mxGeometry x="1670" y="250" width="240" height="180" as="geometry" />
        </mxCell>
        <mxCell id="iAANMyzKoAnhCtGlSeD2-73" value="10 - fouiller le bureau" style="text;strokeColor=none;fillColor=none;align=left;verticalAlign=middle;spacingLeft=4;spacingRight=4;overflow=hidden;points=[[0,0.5],[1,0.5]];portConstraint=eastwest;rotatable=0;whiteSpace=wrap;html=1;" vertex="1" parent="iAANMyzKoAnhCtGlSeD2-71">
          <mxGeometry y="30" width="240" height="30" as="geometry" />
        </mxCell>
        <mxCell id="iAANMyzKoAnhCtGlSeD2-72" value="13 - essayer d&#39;ouvrir le volet" style="text;strokeColor=none;fillColor=none;align=left;verticalAlign=middle;spacingLeft=4;spacingRight=4;overflow=hidden;points=[[0,0.5],[1,0.5]];portConstraint=eastwest;rotatable=0;whiteSpace=wrap;html=1;" vertex="1" parent="iAANMyzKoAnhCtGlSeD2-71">
          <mxGeometry y="60" width="240" height="30" as="geometry" />
        </mxCell>
        <mxCell id="iAANMyzKoAnhCtGlSeD2-94" value="11 - atteindre la télé" style="text;strokeColor=none;fillColor=none;align=left;verticalAlign=middle;spacingLeft=4;spacingRight=4;overflow=hidden;points=[[0,0.5],[1,0.5]];portConstraint=eastwest;rotatable=0;whiteSpace=wrap;html=1;" vertex="1" parent="iAANMyzKoAnhCtGlSeD2-71">
          <mxGeometry y="90" width="240" height="30" as="geometry" />
        </mxCell>
        <mxCell id="iAANMyzKoAnhCtGlSeD2-74" value="15 - atteindre la porte" style="text;strokeColor=none;fillColor=none;align=left;verticalAlign=middle;spacingLeft=4;spacingRight=4;overflow=hidden;points=[[0,0.5],[1,0.5]];portConstraint=eastwest;rotatable=0;whiteSpace=wrap;html=1;" vertex="1" parent="iAANMyzKoAnhCtGlSeD2-71">
          <mxGeometry y="120" width="240" height="30" as="geometry" />
        </mxCell>
        <mxCell id="iAANMyzKoAnhCtGlSeD2-75" value="4 - tu ne fais plus de bruit et tu écoutes" style="text;strokeColor=none;fillColor=none;align=left;verticalAlign=middle;spacingLeft=4;spacingRight=4;overflow=hidden;points=[[0,0.5],[1,0.5]];portConstraint=eastwest;rotatable=0;whiteSpace=wrap;html=1;" vertex="1" parent="iAANMyzKoAnhCtGlSeD2-71">
          <mxGeometry y="150" width="240" height="30" as="geometry" />
        </mxCell>
        <mxCell id="iAANMyzKoAnhCtGlSeD2-76" style="edgeStyle=orthogonalEdgeStyle;rounded=0;orthogonalLoop=1;jettySize=auto;html=1;entryX=0;entryY=0.108;entryDx=0;entryDy=0;entryPerimeter=0;exitX=0.996;exitY=0.108;exitDx=0;exitDy=0;exitPerimeter=0;" edge="1" parent="pnk6eSNMhnhxJrGRFuTv-1" source="iAANMyzKoAnhCtGlSeD2-66" target="iAANMyzKoAnhCtGlSeD2-71">
          <mxGeometry relative="1" as="geometry" />
        </mxCell>
        <mxCell id="iAANMyzKoAnhCtGlSeD2-77" value="13 - Actions" style="swimlane;fontStyle=0;childLayout=stackLayout;horizontal=1;startSize=30;horizontalStack=0;resizeParent=1;resizeParentMax=0;resizeLast=0;collapsible=1;marginBottom=0;whiteSpace=wrap;html=1;" vertex="1" parent="pnk6eSNMhnhxJrGRFuTv-1">
          <mxGeometry x="1970" y="460" width="240" height="150" as="geometry" />
        </mxCell>
        <mxCell id="iAANMyzKoAnhCtGlSeD2-82" value="A - ouvrir volet avec manivelle [Réussite]" style="text;strokeColor=none;fillColor=none;align=left;verticalAlign=middle;spacingLeft=4;spacingRight=4;overflow=hidden;points=[[0,0.5],[1,0.5]];portConstraint=eastwest;rotatable=0;whiteSpace=wrap;html=1;" vertex="1" parent="iAANMyzKoAnhCtGlSeD2-77">
          <mxGeometry y="30" width="240" height="30" as="geometry" />
        </mxCell>
        <mxCell id="iAANMyzKoAnhCtGlSeD2-83" value="A - ouvrir volet avec manivelle [Echec]" style="text;strokeColor=none;fillColor=none;align=left;verticalAlign=middle;spacingLeft=4;spacingRight=4;overflow=hidden;points=[[0,0.5],[1,0.5]];portConstraint=eastwest;rotatable=0;whiteSpace=wrap;html=1;" vertex="1" parent="iAANMyzKoAnhCtGlSeD2-77">
          <mxGeometry y="60" width="240" height="30" as="geometry" />
        </mxCell>
        <mxCell id="iAANMyzKoAnhCtGlSeD2-80" value="B - ouvrir le volet par la force [Réussite]" style="text;strokeColor=none;fillColor=none;align=left;verticalAlign=middle;spacingLeft=4;spacingRight=4;overflow=hidden;points=[[0,0.5],[1,0.5]];portConstraint=eastwest;rotatable=0;whiteSpace=wrap;html=1;" vertex="1" parent="iAANMyzKoAnhCtGlSeD2-77">
          <mxGeometry y="90" width="240" height="30" as="geometry" />
        </mxCell>
        <mxCell id="iAANMyzKoAnhCtGlSeD2-81" value="B - ouvrir le volet par la force [Echec]" style="text;strokeColor=none;fillColor=none;align=left;verticalAlign=middle;spacingLeft=4;spacingRight=4;overflow=hidden;points=[[0,0.5],[1,0.5]];portConstraint=eastwest;rotatable=0;whiteSpace=wrap;html=1;" vertex="1" parent="iAANMyzKoAnhCtGlSeD2-77">
          <mxGeometry y="120" width="240" height="30" as="geometry" />
        </mxCell>
        <mxCell id="iAANMyzKoAnhCtGlSeD2-84" style="edgeStyle=orthogonalEdgeStyle;rounded=0;orthogonalLoop=1;jettySize=auto;html=1;entryX=0;entryY=0.112;entryDx=0;entryDy=0;entryPerimeter=0;" edge="1" parent="pnk6eSNMhnhxJrGRFuTv-1" source="iAANMyzKoAnhCtGlSeD2-72" target="iAANMyzKoAnhCtGlSeD2-77">
          <mxGeometry relative="1" as="geometry" />
        </mxCell>
        <mxCell id="iAANMyzKoAnhCtGlSeD2-85" style="edgeStyle=orthogonalEdgeStyle;rounded=0;orthogonalLoop=1;jettySize=auto;html=1;entryX=-0.01;entryY=0.128;entryDx=0;entryDy=0;entryPerimeter=0;" edge="1" parent="pnk6eSNMhnhxJrGRFuTv-1" source="iAANMyzKoAnhCtGlSeD2-73" target="pnk6eSNMhnhxJrGRFuTv-24">
          <mxGeometry relative="1" as="geometry" />
        </mxCell>
        <mxCell id="iAANMyzKoAnhCtGlSeD2-86" style="edgeStyle=orthogonalEdgeStyle;rounded=0;orthogonalLoop=1;jettySize=auto;html=1;entryX=-0.004;entryY=0.081;entryDx=0;entryDy=0;entryPerimeter=0;" edge="1" parent="pnk6eSNMhnhxJrGRFuTv-1" source="pnk6eSNMhnhxJrGRFuTv-24" target="pnk6eSNMhnhxJrGRFuTv-32">
          <mxGeometry relative="1" as="geometry" />
        </mxCell>
        <mxCell id="iAANMyzKoAnhCtGlSeD2-87" value="13 - le volet dans l&#39;état..." style="swimlane;fontStyle=0;childLayout=stackLayout;horizontal=1;startSize=30;horizontalStack=0;resizeParent=1;resizeParentMax=0;resizeLast=0;collapsible=1;marginBottom=0;whiteSpace=wrap;html=1;" vertex="1" parent="pnk6eSNMhnhxJrGRFuTv-1">
          <mxGeometry x="2400" y="400" width="240" height="120" as="geometry" />
        </mxCell>
        <mxCell id="iAANMyzKoAnhCtGlSeD2-89" value="11 - atteindre la télé" style="text;strokeColor=none;fillColor=none;align=left;verticalAlign=middle;spacingLeft=4;spacingRight=4;overflow=hidden;points=[[0,0.5],[1,0.5]];portConstraint=eastwest;rotatable=0;whiteSpace=wrap;html=1;" vertex="1" parent="iAANMyzKoAnhCtGlSeD2-87">
          <mxGeometry y="30" width="240" height="30" as="geometry" />
        </mxCell>
        <mxCell id="iAANMyzKoAnhCtGlSeD2-90" value="15 - atteindre la porte" style="text;strokeColor=none;fillColor=none;align=left;verticalAlign=middle;spacingLeft=4;spacingRight=4;overflow=hidden;points=[[0,0.5],[1,0.5]];portConstraint=eastwest;rotatable=0;whiteSpace=wrap;html=1;" vertex="1" parent="iAANMyzKoAnhCtGlSeD2-87">
          <mxGeometry y="60" width="240" height="30" as="geometry" />
        </mxCell>
        <mxCell id="iAANMyzKoAnhCtGlSeD2-91" value="4 - tu ne fais plus de bruit et tu écoutes" style="text;strokeColor=none;fillColor=none;align=left;verticalAlign=middle;spacingLeft=4;spacingRight=4;overflow=hidden;points=[[0,0.5],[1,0.5]];portConstraint=eastwest;rotatable=0;whiteSpace=wrap;html=1;" vertex="1" parent="iAANMyzKoAnhCtGlSeD2-87">
          <mxGeometry y="90" width="240" height="30" as="geometry" />
        </mxCell>
        <mxCell id="iAANMyzKoAnhCtGlSeD2-92" style="edgeStyle=orthogonalEdgeStyle;rounded=0;orthogonalLoop=1;jettySize=auto;html=1;entryX=-0.009;entryY=0.125;entryDx=0;entryDy=0;entryPerimeter=0;exitX=1;exitY=0.081;exitDx=0;exitDy=0;exitPerimeter=0;" edge="1" parent="pnk6eSNMhnhxJrGRFuTv-1" source="iAANMyzKoAnhCtGlSeD2-77" target="iAANMyzKoAnhCtGlSeD2-87">
          <mxGeometry relative="1" as="geometry" />
        </mxCell>
        <mxCell id="iAANMyzKoAnhCtGlSeD2-95" style="edgeStyle=orthogonalEdgeStyle;rounded=0;orthogonalLoop=1;jettySize=auto;html=1;entryX=0.008;entryY=0.116;entryDx=0;entryDy=0;entryPerimeter=0;" edge="1" parent="pnk6eSNMhnhxJrGRFuTv-1" source="iAANMyzKoAnhCtGlSeD2-75" target="pnk6eSNMhnhxJrGRFuTv-123">
          <mxGeometry relative="1" as="geometry">
            <Array as="points">
              <mxPoint x="1930" y="415" />
              <mxPoint x="1930" y="-70" />
              <mxPoint x="2000" y="-70" />
              <mxPoint x="2000" y="-243" />
            </Array>
          </mxGeometry>
        </mxCell>
        <mxCell id="iAANMyzKoAnhCtGlSeD2-96" style="edgeStyle=orthogonalEdgeStyle;rounded=0;orthogonalLoop=1;jettySize=auto;html=1;entryX=-0.01;entryY=0.112;entryDx=0;entryDy=0;entryPerimeter=0;" edge="1" parent="pnk6eSNMhnhxJrGRFuTv-1" source="iAANMyzKoAnhCtGlSeD2-74" target="iAANMyzKoAnhCtGlSeD2-57">
          <mxGeometry relative="1" as="geometry">
            <Array as="points">
              <mxPoint x="2420" y="385" />
              <mxPoint x="2420" y="47" />
            </Array>
          </mxGeometry>
        </mxCell>
        <mxCell id="iAANMyzKoAnhCtGlSeD2-98" style="edgeStyle=orthogonalEdgeStyle;rounded=0;orthogonalLoop=1;jettySize=auto;html=1;entryX=0.002;entryY=0.077;entryDx=0;entryDy=0;entryPerimeter=0;" edge="1" parent="pnk6eSNMhnhxJrGRFuTv-1" source="iAANMyzKoAnhCtGlSeD2-0" target="iAANMyzKoAnhCtGlSeD2-66">
          <mxGeometry relative="1" as="geometry">
            <Array as="points">
              <mxPoint x="1670" y="-175" />
              <mxPoint x="1670" y="-30" />
              <mxPoint x="1309" y="-30" />
              <mxPoint x="1309" y="192" />
            </Array>
          </mxGeometry>
        </mxCell>
        <mxCell id="iAANMyzKoAnhCtGlSeD2-99" style="edgeStyle=orthogonalEdgeStyle;rounded=0;orthogonalLoop=1;jettySize=auto;html=1;entryX=-0.002;entryY=0.081;entryDx=0;entryDy=0;entryPerimeter=0;" edge="1" parent="pnk6eSNMhnhxJrGRFuTv-1" source="iAANMyzKoAnhCtGlSeD2-1" target="iAANMyzKoAnhCtGlSeD2-57">
          <mxGeometry relative="1" as="geometry">
            <Array as="points">
              <mxPoint x="1980" y="-145" />
              <mxPoint x="1980" y="-80" />
              <mxPoint x="2290" y="-80" />
              <mxPoint x="2290" y="42" />
            </Array>
          </mxGeometry>
        </mxCell>
        <mxCell id="iAANMyzKoAnhCtGlSeD2-101" style="edgeStyle=orthogonalEdgeStyle;rounded=0;orthogonalLoop=1;jettySize=auto;html=1;entryX=0.003;entryY=0.093;entryDx=0;entryDy=0;entryPerimeter=0;" edge="1" parent="pnk6eSNMhnhxJrGRFuTv-1" source="iAANMyzKoAnhCtGlSeD2-65" target="pnk6eSNMhnhxJrGRFuTv-123">
          <mxGeometry relative="1" as="geometry">
            <Array as="points">
              <mxPoint x="1950" y="125" />
              <mxPoint x="1950" y="-246" />
            </Array>
          </mxGeometry>
        </mxCell>
        <mxCell id="iAANMyzKoAnhCtGlSeD2-102" style="edgeStyle=orthogonalEdgeStyle;rounded=0;orthogonalLoop=1;jettySize=auto;html=1;entryX=0;entryY=0;entryDx=0;entryDy=0;" edge="1" parent="pnk6eSNMhnhxJrGRFuTv-1" source="iAANMyzKoAnhCtGlSeD2-91" target="pnk6eSNMhnhxJrGRFuTv-123">
          <mxGeometry relative="1" as="geometry">
            <Array as="points">
              <mxPoint x="2370" y="505" />
              <mxPoint x="2370" y="450" />
              <mxPoint x="1960" y="450" />
              <mxPoint x="1960" y="-260" />
            </Array>
          </mxGeometry>
        </mxCell>
        <mxCell id="iAANMyzKoAnhCtGlSeD2-103" style="edgeStyle=orthogonalEdgeStyle;rounded=0;orthogonalLoop=1;jettySize=auto;html=1;entryX=-0.002;entryY=0.089;entryDx=0;entryDy=0;entryPerimeter=0;" edge="1" parent="pnk6eSNMhnhxJrGRFuTv-1" source="iAANMyzKoAnhCtGlSeD2-90" target="iAANMyzKoAnhCtGlSeD2-57">
          <mxGeometry relative="1" as="geometry" />
        </mxCell>
        <mxCell id="iAANMyzKoAnhCtGlSeD2-109" value="11 - Actions" style="swimlane;fontStyle=0;childLayout=stackLayout;horizontal=1;startSize=30;horizontalStack=0;resizeParent=1;resizeParentMax=0;resizeLast=0;collapsible=1;marginBottom=0;whiteSpace=wrap;html=1;" vertex="1" parent="pnk6eSNMhnhxJrGRFuTv-1">
          <mxGeometry x="1970" y="670" width="290" height="150" as="geometry" />
        </mxCell>
        <mxCell id="iAANMyzKoAnhCtGlSeD2-110" value="A - je cours vers la télé [Réussite]" style="text;strokeColor=none;fillColor=none;align=left;verticalAlign=middle;spacingLeft=4;spacingRight=4;overflow=hidden;points=[[0,0.5],[1,0.5]];portConstraint=eastwest;rotatable=0;whiteSpace=wrap;html=1;" vertex="1" parent="iAANMyzKoAnhCtGlSeD2-109">
          <mxGeometry y="30" width="290" height="30" as="geometry" />
        </mxCell>
        <mxCell id="iAANMyzKoAnhCtGlSeD2-111" value="A - je cours vers la télé [Echec]" style="text;strokeColor=none;fillColor=none;align=left;verticalAlign=middle;spacingLeft=4;spacingRight=4;overflow=hidden;points=[[0,0.5],[1,0.5]];portConstraint=eastwest;rotatable=0;whiteSpace=wrap;html=1;" vertex="1" parent="iAANMyzKoAnhCtGlSeD2-109">
          <mxGeometry y="60" width="290" height="30" as="geometry" />
        </mxCell>
        <mxCell id="iAANMyzKoAnhCtGlSeD2-112" value="B - j&#39;y vais sans faire de bruit [Réussite]" style="text;strokeColor=none;fillColor=none;align=left;verticalAlign=middle;spacingLeft=4;spacingRight=4;overflow=hidden;points=[[0,0.5],[1,0.5]];portConstraint=eastwest;rotatable=0;whiteSpace=wrap;html=1;" vertex="1" parent="iAANMyzKoAnhCtGlSeD2-109">
          <mxGeometry y="90" width="290" height="30" as="geometry" />
        </mxCell>
        <mxCell id="iAANMyzKoAnhCtGlSeD2-113" value="B -&amp;nbsp;&amp;nbsp;j&#39;y vais sans faire de bruit&amp;nbsp;&amp;nbsp;[Echec]" style="text;strokeColor=none;fillColor=none;align=left;verticalAlign=middle;spacingLeft=4;spacingRight=4;overflow=hidden;points=[[0,0.5],[1,0.5]];portConstraint=eastwest;rotatable=0;whiteSpace=wrap;html=1;" vertex="1" parent="iAANMyzKoAnhCtGlSeD2-109">
          <mxGeometry y="120" width="290" height="30" as="geometry" />
        </mxCell>
        <mxCell id="iAANMyzKoAnhCtGlSeD2-114" style="edgeStyle=orthogonalEdgeStyle;rounded=0;orthogonalLoop=1;jettySize=auto;html=1;entryX=1;entryY=0.112;entryDx=0;entryDy=0;entryPerimeter=0;" edge="1" parent="pnk6eSNMhnhxJrGRFuTv-1" source="iAANMyzKoAnhCtGlSeD2-89" target="iAANMyzKoAnhCtGlSeD2-109">
          <mxGeometry relative="1" as="geometry" />
        </mxCell>
        <mxCell id="iAANMyzKoAnhCtGlSeD2-115" style="edgeStyle=orthogonalEdgeStyle;rounded=0;orthogonalLoop=1;jettySize=auto;html=1;entryX=-0.006;entryY=0.128;entryDx=0;entryDy=0;entryPerimeter=0;" edge="1" parent="pnk6eSNMhnhxJrGRFuTv-1" source="pnk6eSNMhnhxJrGRFuTv-34" target="iAANMyzKoAnhCtGlSeD2-109">
          <mxGeometry relative="1" as="geometry">
            <Array as="points">
              <mxPoint x="1940" y="65" />
              <mxPoint x="1940" y="689" />
            </Array>
          </mxGeometry>
        </mxCell>
        <mxCell id="iAANMyzKoAnhCtGlSeD2-116" style="edgeStyle=orthogonalEdgeStyle;rounded=0;orthogonalLoop=1;jettySize=auto;html=1;entryX=-0.006;entryY=0.112;entryDx=0;entryDy=0;entryPerimeter=0;" edge="1" parent="pnk6eSNMhnhxJrGRFuTv-1" source="iAANMyzKoAnhCtGlSeD2-94" target="iAANMyzKoAnhCtGlSeD2-109">
          <mxGeometry relative="1" as="geometry">
            <Array as="points">
              <mxPoint x="1950" y="355" />
              <mxPoint x="1950" y="687" />
            </Array>
          </mxGeometry>
        </mxCell>
        <mxCell id="iAANMyzKoAnhCtGlSeD2-117" style="edgeStyle=orthogonalEdgeStyle;rounded=0;orthogonalLoop=1;jettySize=auto;html=1;entryX=-0.006;entryY=0.057;entryDx=0;entryDy=0;entryPerimeter=0;" edge="1" parent="pnk6eSNMhnhxJrGRFuTv-1" source="iAANMyzKoAnhCtGlSeD2-50" target="iAANMyzKoAnhCtGlSeD2-109">
          <mxGeometry relative="1" as="geometry">
            <Array as="points">
              <mxPoint x="1960" y="-115" />
              <mxPoint x="1960" y="679" />
            </Array>
          </mxGeometry>
        </mxCell>
        <mxCell id="iAANMyzKoAnhCtGlSeD2-119" style="edgeStyle=orthogonalEdgeStyle;rounded=0;orthogonalLoop=1;jettySize=auto;html=1;entryX=1.009;entryY=0.081;entryDx=0;entryDy=0;entryPerimeter=0;exitX=0;exitY=0.5;exitDx=0;exitDy=0;" edge="1" parent="pnk6eSNMhnhxJrGRFuTv-1" source="iAANMyzKoAnhCtGlSeD2-51" target="iAANMyzKoAnhCtGlSeD2-109">
          <mxGeometry relative="1" as="geometry">
            <Array as="points">
              <mxPoint x="2330" y="-145" />
              <mxPoint x="2330" y="-100" />
              <mxPoint x="2380" y="-100" />
              <mxPoint x="2380" y="682" />
            </Array>
          </mxGeometry>
        </mxCell>
        <mxCell id="iAANMyzKoAnhCtGlSeD2-120" value="11 - tu te mets devant la télé allumée" style="swimlane;fontStyle=0;childLayout=stackLayout;horizontal=1;startSize=30;horizontalStack=0;resizeParent=1;resizeParentMax=0;resizeLast=0;collapsible=1;marginBottom=0;whiteSpace=wrap;html=1;" vertex="1" parent="pnk6eSNMhnhxJrGRFuTv-1">
          <mxGeometry x="2350" y="710" width="240" height="150" as="geometry" />
        </mxCell>
        <mxCell id="iAANMyzKoAnhCtGlSeD2-121" value="14 - fouiller le meuble de télévision" style="text;strokeColor=none;fillColor=none;align=left;verticalAlign=middle;spacingLeft=4;spacingRight=4;overflow=hidden;points=[[0,0.5],[1,0.5]];portConstraint=eastwest;rotatable=0;whiteSpace=wrap;html=1;" vertex="1" parent="iAANMyzKoAnhCtGlSeD2-120">
          <mxGeometry y="30" width="240" height="30" as="geometry" />
        </mxCell>
        <mxCell id="iAANMyzKoAnhCtGlSeD2-122" value="9 - atteindre le bureau" style="text;strokeColor=none;fillColor=none;align=left;verticalAlign=middle;spacingLeft=4;spacingRight=4;overflow=hidden;points=[[0,0.5],[1,0.5]];portConstraint=eastwest;rotatable=0;whiteSpace=wrap;html=1;" vertex="1" parent="iAANMyzKoAnhCtGlSeD2-120">
          <mxGeometry y="60" width="240" height="30" as="geometry" />
        </mxCell>
        <mxCell id="iAANMyzKoAnhCtGlSeD2-123" value="15 - atteindre la porte" style="text;strokeColor=none;fillColor=none;align=left;verticalAlign=middle;spacingLeft=4;spacingRight=4;overflow=hidden;points=[[0,0.5],[1,0.5]];portConstraint=eastwest;rotatable=0;whiteSpace=wrap;html=1;" vertex="1" parent="iAANMyzKoAnhCtGlSeD2-120">
          <mxGeometry y="90" width="240" height="30" as="geometry" />
        </mxCell>
        <mxCell id="iAANMyzKoAnhCtGlSeD2-124" value="4 - tu ne fais plus de bruit et tu écoutes" style="text;strokeColor=none;fillColor=none;align=left;verticalAlign=middle;spacingLeft=4;spacingRight=4;overflow=hidden;points=[[0,0.5],[1,0.5]];portConstraint=eastwest;rotatable=0;whiteSpace=wrap;html=1;" vertex="1" parent="iAANMyzKoAnhCtGlSeD2-120">
          <mxGeometry y="120" width="240" height="30" as="geometry" />
        </mxCell>
        <mxCell id="iAANMyzKoAnhCtGlSeD2-125" style="edgeStyle=orthogonalEdgeStyle;rounded=0;orthogonalLoop=1;jettySize=auto;html=1;entryX=0.013;entryY=0.096;entryDx=0;entryDy=0;entryPerimeter=0;exitX=1;exitY=0.151;exitDx=0;exitDy=0;exitPerimeter=0;" edge="1" parent="pnk6eSNMhnhxJrGRFuTv-1" source="iAANMyzKoAnhCtGlSeD2-109" target="iAANMyzKoAnhCtGlSeD2-120">
          <mxGeometry relative="1" as="geometry" />
        </mxCell>
        <mxCell id="iAANMyzKoAnhCtGlSeD2-126" value="14 - Actions" style="swimlane;fontStyle=0;childLayout=stackLayout;horizontal=1;startSize=30;horizontalStack=0;resizeParent=1;resizeParentMax=0;resizeLast=0;collapsible=1;marginBottom=0;whiteSpace=wrap;html=1;" vertex="1" parent="pnk6eSNMhnhxJrGRFuTv-1">
          <mxGeometry x="2730" y="730" width="370" height="150" as="geometry" />
        </mxCell>
        <mxCell id="iAANMyzKoAnhCtGlSeD2-127" value="A - je fouille le meuble de la télé consciencieusement [Réussite]" style="text;strokeColor=none;fillColor=none;align=left;verticalAlign=middle;spacingLeft=4;spacingRight=4;overflow=hidden;points=[[0,0.5],[1,0.5]];portConstraint=eastwest;rotatable=0;whiteSpace=wrap;html=1;" vertex="1" parent="iAANMyzKoAnhCtGlSeD2-126">
          <mxGeometry y="30" width="370" height="30" as="geometry" />
        </mxCell>
        <mxCell id="iAANMyzKoAnhCtGlSeD2-128" value="A -&amp;nbsp;&amp;nbsp;je fouille le meuble de la télé consciencieusement&amp;nbsp;[Echec]" style="text;strokeColor=none;fillColor=none;align=left;verticalAlign=middle;spacingLeft=4;spacingRight=4;overflow=hidden;points=[[0,0.5],[1,0.5]];portConstraint=eastwest;rotatable=0;whiteSpace=wrap;html=1;" vertex="1" parent="iAANMyzKoAnhCtGlSeD2-126">
          <mxGeometry y="60" width="370" height="30" as="geometry" />
        </mxCell>
        <mxCell id="iAANMyzKoAnhCtGlSeD2-129" value="B -&amp;nbsp;&amp;nbsp;je fouille le meuble de la télé rapidement [Réussite]" style="text;strokeColor=none;fillColor=none;align=left;verticalAlign=middle;spacingLeft=4;spacingRight=4;overflow=hidden;points=[[0,0.5],[1,0.5]];portConstraint=eastwest;rotatable=0;whiteSpace=wrap;html=1;" vertex="1" parent="iAANMyzKoAnhCtGlSeD2-126">
          <mxGeometry y="90" width="370" height="30" as="geometry" />
        </mxCell>
        <mxCell id="iAANMyzKoAnhCtGlSeD2-130" value="B -&amp;nbsp;&amp;nbsp;&amp;nbsp;je fouille le meuble de la télé rapidement&amp;nbsp; [Echec]" style="text;strokeColor=none;fillColor=none;align=left;verticalAlign=middle;spacingLeft=4;spacingRight=4;overflow=hidden;points=[[0,0.5],[1,0.5]];portConstraint=eastwest;rotatable=0;whiteSpace=wrap;html=1;" vertex="1" parent="iAANMyzKoAnhCtGlSeD2-126">
          <mxGeometry y="120" width="370" height="30" as="geometry" />
        </mxCell>
        <mxCell id="iAANMyzKoAnhCtGlSeD2-131" style="edgeStyle=orthogonalEdgeStyle;rounded=0;orthogonalLoop=1;jettySize=auto;html=1;entryX=0;entryY=0.065;entryDx=0;entryDy=0;entryPerimeter=0;" edge="1" parent="pnk6eSNMhnhxJrGRFuTv-1" source="iAANMyzKoAnhCtGlSeD2-121" target="iAANMyzKoAnhCtGlSeD2-126">
          <mxGeometry relative="1" as="geometry" />
        </mxCell>
        <mxCell id="iAANMyzKoAnhCtGlSeD2-132" value="14 - le document renferme" style="swimlane;fontStyle=0;childLayout=stackLayout;horizontal=1;startSize=30;horizontalStack=0;resizeParent=1;resizeParentMax=0;resizeLast=0;collapsible=1;marginBottom=0;whiteSpace=wrap;html=1;" vertex="1" parent="pnk6eSNMhnhxJrGRFuTv-1">
          <mxGeometry x="3170" y="740" width="240" height="120" as="geometry" />
        </mxCell>
        <mxCell id="iAANMyzKoAnhCtGlSeD2-134" value="10 - atteindre le bureau" style="text;strokeColor=none;fillColor=none;align=left;verticalAlign=middle;spacingLeft=4;spacingRight=4;overflow=hidden;points=[[0,0.5],[1,0.5]];portConstraint=eastwest;rotatable=0;whiteSpace=wrap;html=1;" vertex="1" parent="iAANMyzKoAnhCtGlSeD2-132">
          <mxGeometry y="30" width="240" height="30" as="geometry" />
        </mxCell>
        <mxCell id="iAANMyzKoAnhCtGlSeD2-135" value="15 - atteindre la porte" style="text;strokeColor=none;fillColor=none;align=left;verticalAlign=middle;spacingLeft=4;spacingRight=4;overflow=hidden;points=[[0,0.5],[1,0.5]];portConstraint=eastwest;rotatable=0;whiteSpace=wrap;html=1;" vertex="1" parent="iAANMyzKoAnhCtGlSeD2-132">
          <mxGeometry y="60" width="240" height="30" as="geometry" />
        </mxCell>
        <mxCell id="iAANMyzKoAnhCtGlSeD2-136" value="4 - tu ne fais plus de bruit et tu écoutes" style="text;strokeColor=none;fillColor=none;align=left;verticalAlign=middle;spacingLeft=4;spacingRight=4;overflow=hidden;points=[[0,0.5],[1,0.5]];portConstraint=eastwest;rotatable=0;whiteSpace=wrap;html=1;" vertex="1" parent="iAANMyzKoAnhCtGlSeD2-132">
          <mxGeometry y="90" width="240" height="30" as="geometry" />
        </mxCell>
        <mxCell id="iAANMyzKoAnhCtGlSeD2-137" style="edgeStyle=orthogonalEdgeStyle;rounded=0;orthogonalLoop=1;jettySize=auto;html=1;entryX=0.003;entryY=0.077;entryDx=0;entryDy=0;entryPerimeter=0;exitX=0.997;exitY=0.089;exitDx=0;exitDy=0;exitPerimeter=0;" edge="1" parent="pnk6eSNMhnhxJrGRFuTv-1" source="iAANMyzKoAnhCtGlSeD2-126" target="iAANMyzKoAnhCtGlSeD2-132">
          <mxGeometry relative="1" as="geometry" />
        </mxCell>
        <mxCell id="iAANMyzKoAnhCtGlSeD2-138" style="edgeStyle=orthogonalEdgeStyle;rounded=0;orthogonalLoop=1;jettySize=auto;html=1;entryX=0.006;entryY=0.132;entryDx=0;entryDy=0;entryPerimeter=0;" edge="1" parent="pnk6eSNMhnhxJrGRFuTv-1" source="iAANMyzKoAnhCtGlSeD2-122" target="iAANMyzKoAnhCtGlSeD2-66">
          <mxGeometry relative="1" as="geometry">
            <Array as="points">
              <mxPoint x="2310" y="785" />
              <mxPoint x="2310" y="840" />
              <mxPoint x="1290" y="840" />
              <mxPoint x="1290" y="200" />
            </Array>
          </mxGeometry>
        </mxCell>
        <mxCell id="iAANMyzKoAnhCtGlSeD2-139" style="edgeStyle=orthogonalEdgeStyle;rounded=0;orthogonalLoop=1;jettySize=auto;html=1;entryX=0.006;entryY=0.112;entryDx=0;entryDy=0;entryPerimeter=0;" edge="1" parent="pnk6eSNMhnhxJrGRFuTv-1" source="iAANMyzKoAnhCtGlSeD2-123" target="iAANMyzKoAnhCtGlSeD2-57">
          <mxGeometry relative="1" as="geometry">
            <Array as="points">
              <mxPoint x="2320" y="815" />
              <mxPoint x="2320" y="380" />
              <mxPoint x="2452" y="380" />
            </Array>
          </mxGeometry>
        </mxCell>
        <mxCell id="iAANMyzKoAnhCtGlSeD2-140" style="edgeStyle=orthogonalEdgeStyle;rounded=0;orthogonalLoop=1;jettySize=auto;html=1;entryX=0.998;entryY=0.053;entryDx=0;entryDy=0;entryPerimeter=0;exitX=0;exitY=0.5;exitDx=0;exitDy=0;" edge="1" parent="pnk6eSNMhnhxJrGRFuTv-1" source="iAANMyzKoAnhCtGlSeD2-124" target="pnk6eSNMhnhxJrGRFuTv-123">
          <mxGeometry relative="1" as="geometry">
            <Array as="points">
              <mxPoint x="2340" y="845" />
              <mxPoint x="2340" y="690" />
              <mxPoint x="2370" y="690" />
              <mxPoint x="2370" y="-40" />
              <mxPoint x="2300" y="-40" />
              <mxPoint x="2300" y="-252" />
            </Array>
          </mxGeometry>
        </mxCell>
        <mxCell id="iAANMyzKoAnhCtGlSeD2-141" value="STOP ICI" style="rhombus;whiteSpace=wrap;html=1;fillColor=#f8cecc;strokeColor=#b85450;strokeWidth=9.0551;" vertex="1" parent="pnk6eSNMhnhxJrGRFuTv-1">
          <mxGeometry x="2930" y="-235" width="185" height="165" as="geometry" />
        </mxCell>
        <mxCell id="iAANMyzKoAnhCtGlSeD2-142" value="ajouter inventaire dans personnage" style="ellipse;whiteSpace=wrap;html=1;fillColor=#dae8fc;strokeColor=#6c8ebf;" vertex="1" parent="pnk6eSNMhnhxJrGRFuTv-1">
          <mxGeometry x="2950" y="260" width="120" height="80" as="geometry" />
        </mxCell>
        <mxCell id="iAANMyzKoAnhCtGlSeD2-143" value="attention si on met en place la suppression d&#39;action déjà réalisé, il faut définir les évènement inefassable , ex : la porte" style="ellipse;whiteSpace=wrap;html=1;fillColor=#dae8fc;strokeColor=#6c8ebf;" vertex="1" parent="pnk6eSNMhnhxJrGRFuTv-1">
          <mxGeometry x="3155" y="-250" width="185" height="150" as="geometry" />
        </mxCell>
      </root>
    </mxGraphModel>
  </diagram>
</mxfile>
